<svg xmlns="http://www.w3.org/2000/svg" viewBox="0 0 300 300" width="300" height="300" xmlns:c2pa="http://c2pa.org/manifest"><metadata><c2pa:manifest>AAAWgmp1bWIAAAAeanVtZGMycGEAEQAQgAAAqgA4m3EDYzJwYQAAABZcanVtYgAAAEdqdW1kYzJtYQARABCAAACqADibcQN1cm46YzJwYTo3ZDc3ZjE3ZS00ZDJlLTQ2OTgtOWU3MC0zODg0MTEyYzQ4ZmQAAAADl2p1bWIAAAApanVtZGMyYXMAEQAQgAAAqgA4m3EDYzJwYS5hc3NlcnRpb25zAAAAALxqdW1iAAAARGp1bWRjYm9yABEAEIAAAKoAOJtxE2MycGEuaW5ncmVkaWVudC52MwAAAAAYYzJzaIqHHAfQIzWQNC9gKQWPpoAAAABwY2JvcqNpZGM6Zm9ybWF0bWltYWdlL3N2Zyt4bWxqaW5zdGFuY2VJRHgseG1wOmlpZDpjMmE5MDJmNC1jMzA2LTRlYmItOTIyZi0wYzZmYjBiODgyMWRscmVsYXRpb25zaGlwaHBhcmVudE9mAAAB4mp1bWIAAABBanVtZGNib3IAEQAQgAAAqgA4m3ETYzJwYS5hY3Rpb25zLnYyAAAAABhjMnNoR9WcnWv4sBWRG9UvrDoUNgAAAZljYm9yomdhY3Rpb25zgqJmYWN0aW9ua2MycGEub3BlbmVkanBhcmFtZXRlcnOha2luZ3JlZGllbnRzgaJjdXJseC1zZWxmI2p1bWJmPWMycGEuYXNzZXJ0aW9ucy9jMnBhLmluZ3JlZGllbnQudjNkaGFzaFggLY5kWoDHRqcW474mCsCDrEuRbfsQ9WBZaJ7mm/DIEZCkZmFjdGlvbngdY29tLmFudGhyb3BpYy5jbGF1ZGUucHJvdmlkZWRqcGFyYW1ldGVyc6F4H2NvbS5hbnRocm9waWMub3JpZ2luLWNvbmZpZGVuY2VndW5rbm93bmtkZXNjcmlwdGlvbnhmQ2xhdWRlIHByb3ZpZGVkIHRoaXMgZmlsZSBhdCB0aGUgcmVxdWVzdCBvZiBhIHVzZXIgYW5kIG1heSBoYXZlIGNyZWF0ZWQgb3IgbW9kaWZpZWQgdGhlIGZpbGUgY29udGVudHMubXNvZnR3YXJlQWdlbnShZG5hbWVmQ2xhdWRlcmFsbEFjdGlvbnNJbmNsdWRlZPUAAADIanVtYgAAAEBqdW1kY2JvcgARABCAAACqADibcRNjMnBhLmhhc2guZGF0YQAAAAAYYzJzaJp+jwln3zwlziA3Jr4DXesAAACAY2JvcqVjYWxnZnNoYTI1NmNwYWRNAAAAAAAAAAAAAAAAAGRoYXNoWCAZLbW/qTnIZ2gC5PSGgB8V7QY0J7uenkkGCRGDuicg4GRuYW1lbmp1bWJmIG1hbmlmZXN0amV4Y2x1c2lvbnOBomVzdGFydBiWZmxlbmd0aBkeBAAAAj5qdW1iAAAAJ2p1bWRjMmNsABEAEIAAAKoAOJtxA2MycGEuY2xhaW0udjIAAAACD2Nib3KlY2FsZ2ZzaGEyNTZpc2lnbmF0dXJleE1zZWxmI2p1bWJmPS9jMnBhL3VybjpjMnBhOjdkNzdmMTdlLTRkMmUtNDY5OC05ZTcwLTM4ODQxMTJjNDhmZC9jMnBhLnNpZ25hdHVyZWppbnN0YW5jZUlEeCx4bXA6aWlkOjg0MjIxNWY0LTllYzUtNDNiMy05OGUxLTk4MTliZjkxOGIxNXJjcmVhdGVkX2Fzc2VydGlvbnODomN1cmx4LXNlbGYjanVtYmY9YzJwYS5hc3NlcnRpb25zL2MycGEuaW5ncmVkaWVudC52M2RoYXNoWCAtjmRagMdGpxbjviYKwIOsS5Ft+xD1YFlonuab8MgRkKJjdXJseCpzZWxmI2p1bWJmPWMycGEuYXNzZXJ0aW9ucy9jMnBhLmFjdGlvbnMudjJkaGFzaFggg33xGjw8p1hjMKwijHfQLaGgXUYY9Yj27vp9WJTynvaiY3VybHgpc2VsZiNqdW1iZj1jMnBhLmFzc2VydGlvbnMvYzJwYS5oYXNoLmRhdGFkaGFzaFggKSmdD5FRGauz/JocIM0vDqGm6zp/SrPHjbRAFDOts9Z0Y2xhaW1fZ2VuZXJhdG9yX2luZm+jZG5hbWVvQW50aHJvcGljIEZpbGVzZ3ZlcnNpb25lMS4wLjBrc3BlY1ZlcnNpb25lMi40LjAAABA4anVtYgAAAChqdW1kYzJjcwARABCAAACqADibcQNjMnBhLnNpZ25hdHVyZQAAABAIY2JvctKEWQISogEmGCFZAgowggIGMIIBjaADAgECAhRA5aAK7sI50L64g/oGQgU9Z1UTADAKBggqhkjOPQQDAzBJMRcwFQYDVQQKEw5BbnRocm9waWMsIFBCQzEuMCwGA1UEAxMlQW50aHJvcGljIENvbnRlbnQgQ3JlZGVudGlhbHMgUm9vdCBDQTAeFw0yNjA4MDcxODQzNTZaFw0yODA4MDYxOTQzNTZaMEQxFzAVBgNVBAoTDkFudGhyb3BpYywgUEJDMSkwJwYDVQQDEyBBbnRocm9waWMgQ2xhdWRlIENvbnRlbnQgU2lnbmluZzBZMBMGByqGSM49AgEGCCqGSM49AwEHA0IABJh6CmvLUBgFFNU0vUKlOVtE6djd17L5SuwX0LemFisBM3dkd/3cyjxFA3Qo5S46fX0/ihY0VZ7mfb9KF703t5OjWDBWMA4GA1UdDwEB/wQEAwIHgDAVBgNVHSUEDjAMBgorBgEEAYPoXgIBMAwGA1UdEwEB/wQCMAAwHwYDVR0jBBgwFoAUzlHiBIFOZFsj+OPEz5o+nMHXXMIwCgYIKoZIzj0EAwMDZwAwZAIwMXMdFJ4BetLLVY7ORuE9noqbbAZOZn/aArXyTwFAZfKrPzxF2vPoJNf1+UCdg1XGAjBwX1zd9WGqYkqmL5SFqw1QySjr1zJfpJM9+1rdDwSPLMOPOjKuiXjoU/pUUeG9RwmhY3BhZFkNngAAAAAAAAAAAAAAAAAAAAAAAAAAAAAAAAAAAAAAAAAAAAAAAAAAAAAAAAAAAAAAAAAAAAAAAAAAAAAAAAAAAAAAAAAAAAAAAAAAAAAAAAAAAAAAAAAAAAAAAAAAAAAAAAAAAAAAAAAAAAAAAAAAAAAAAAAAAAAAAAAAAAAAAAAAAAAAAAAAAAAAAAAAAAAAAAAAAAAAAAAAAAAAAAAAAAAAAAAAAAAAAAAAAAAAAAAAAAAAAAAAAAAAAAAAAAAAAAAAAAAAAAAAAAAAAAAAAAAAAAAAAAAAAAAAAAAAAAAAAAAAAAAAAAAAAAAAAAAAAAAAAAAAAAAAAAAAAAAAAAAAAAAAAAAAAAAAAAAAAAAAAAAAAAAAAAAAAAAAAAAAAAAAAAAAAAAAAAAAAAAAAAAAAAAAAAAAAAAAAAAAAAAAAAAAAAAAAAAAAAAAAAAAAAAAAAAAAAAAAAAAAAAAAAAAAAAAAAAAAAAAAAAAAAAAAAAAAAAAAAAAAAAAAAAAAAAAAAAAAAAAAAAAAAAAAAAAAAAAAAAAAAAAAAAAAAAAAAAAAAAAAAAAAAAAAAAAAAAAAAAAAAAAAAAAAAAAAAAAAAAAAAAAAAAAAAAAAAAAAAAAAAAAAAAAAAAAAAAAAAAAAAAAAAAAAAAAAAAAAAAAAAAAAAAAAAAAAAAAAAAAAAAAAAAAAAAAAAAAAAAAAAAAAAAAAAAAAAAAAAAAAAAAAAAAAAAAAAAAAAAAAAAAAAAAAAAAAAAAAAAAAAAAAAAAAAAAAAAAAAAAAAAAAAAAAAAAAAAAAAAAAAAAAAAAAAAAAAAAAAAAAAAAAAAAAAAAAAAAAAAAAAAAAAAAAAAAAAAAAAAAAAAAAAAAAAAAAAAAAAAAAAAAAAAAAAAAAAAAAAAAAAAAAAAAAAAAAAAAAAAAAAAAAAAAAAAAAAAAAAAAAAAAAAAAAAAAAAAAAAAAAAAAAAAAAAAAAAAAAAAAAAAAAAAAAAAAAAAAAAAAAAAAAAAAAAAAAAAAAAAAAAAAAAAAAAAAAAAAAAAAAAAAAAAAAAAAAAAAAAAAAAAAAAAAAAAAAAAAAAAAAAAAAAAAAAAAAAAAAAAAAAAAAAAAAAAAAAAAAAAAAAAAAAAAAAAAAAAAAAAAAAAAAAAAAAAAAAAAAAAAAAAAAAAAAAAAAAAAAAAAAAAAAAAAAAAAAAAAAAAAAAAAAAAAAAAAAAAAAAAAAAAAAAAAAAAAAAAAAAAAAAAAAAAAAAAAAAAAAAAAAAAAAAAAAAAAAAAAAAAAAAAAAAAAAAAAAAAAAAAAAAAAAAAAAAAAAAAAAAAAAAAAAAAAAAAAAAAAAAAAAAAAAAAAAAAAAAAAAAAAAAAAAAAAAAAAAAAAAAAAAAAAAAAAAAAAAAAAAAAAAAAAAAAAAAAAAAAAAAAAAAAAAAAAAAAAAAAAAAAAAAAAAAAAAAAAAAAAAAAAAAAAAAAAAAAAAAAAAAAAAAAAAAAAAAAAAAAAAAAAAAAAAAAAAAAAAAAAAAAAAAAAAAAAAAAAAAAAAAAAAAAAAAAAAAAAAAAAAAAAAAAAAAAAAAAAAAAAAAAAAAAAAAAAAAAAAAAAAAAAAAAAAAAAAAAAAAAAAAAAAAAAAAAAAAAAAAAAAAAAAAAAAAAAAAAAAAAAAAAAAAAAAAAAAAAAAAAAAAAAAAAAAAAAAAAAAAAAAAAAAAAAAAAAAAAAAAAAAAAAAAAAAAAAAAAAAAAAAAAAAAAAAAAAAAAAAAAAAAAAAAAAAAAAAAAAAAAAAAAAAAAAAAAAAAAAAAAAAAAAAAAAAAAAAAAAAAAAAAAAAAAAAAAAAAAAAAAAAAAAAAAAAAAAAAAAAAAAAAAAAAAAAAAAAAAAAAAAAAAAAAAAAAAAAAAAAAAAAAAAAAAAAAAAAAAAAAAAAAAAAAAAAAAAAAAAAAAAAAAAAAAAAAAAAAAAAAAAAAAAAAAAAAAAAAAAAAAAAAAAAAAAAAAAAAAAAAAAAAAAAAAAAAAAAAAAAAAAAAAAAAAAAAAAAAAAAAAAAAAAAAAAAAAAAAAAAAAAAAAAAAAAAAAAAAAAAAAAAAAAAAAAAAAAAAAAAAAAAAAAAAAAAAAAAAAAAAAAAAAAAAAAAAAAAAAAAAAAAAAAAAAAAAAAAAAAAAAAAAAAAAAAAAAAAAAAAAAAAAAAAAAAAAAAAAAAAAAAAAAAAAAAAAAAAAAAAAAAAAAAAAAAAAAAAAAAAAAAAAAAAAAAAAAAAAAAAAAAAAAAAAAAAAAAAAAAAAAAAAAAAAAAAAAAAAAAAAAAAAAAAAAAAAAAAAAAAAAAAAAAAAAAAAAAAAAAAAAAAAAAAAAAAAAAAAAAAAAAAAAAAAAAAAAAAAAAAAAAAAAAAAAAAAAAAAAAAAAAAAAAAAAAAAAAAAAAAAAAAAAAAAAAAAAAAAAAAAAAAAAAAAAAAAAAAAAAAAAAAAAAAAAAAAAAAAAAAAAAAAAAAAAAAAAAAAAAAAAAAAAAAAAAAAAAAAAAAAAAAAAAAAAAAAAAAAAAAAAAAAAAAAAAAAAAAAAAAAAAAAAAAAAAAAAAAAAAAAAAAAAAAAAAAAAAAAAAAAAAAAAAAAAAAAAAAAAAAAAAAAAAAAAAAAAAAAAAAAAAAAAAAAAAAAAAAAAAAAAAAAAAAAAAAAAAAAAAAAAAAAAAAAAAAAAAAAAAAAAAAAAAAAAAAAAAAAAAAAAAAAAAAAAAAAAAAAAAAAAAAAAAAAAAAAAAAAAAAAAAAAAAAAAAAAAAAAAAAAAAAAAAAAAAAAAAAAAAAAAAAAAAAAAAAAAAAAAAAAAAAAAAAAAAAAAAAAAAAAAAAAAAAAAAAAAAAAAAAAAAAAAAAAAAAAAAAAAAAAAAAAAAAAAAAAAAAAAAAAAAAAAAAAAAAAAAAAAAAAAAAAAAAAAAAAAAAAAAAAAAAAAAAAAAAAAAAAAAAAAAAAAAAAAAAAAAAAAAAAAAAAAAAAAAAAAAAAAAAAAAAAAAAAAAAAAAAAAAAAAAAAAAAAAAAAAAAAAAAAAAAAAAAAAAAAAAAAAAAAAAAAAAAAAAAAAAAAAAAAAAAAAAAAAAAAAAAAAAAAAAAAAAAAAAAAAAAAAAAAAAAAAAAAAAAAAAAAAAAAAAAAAAAAAAAAAAAAAAAAAAAAAAAAAAAAAAAAAAAAAAAAAAAAAAAAAAAAAAAAAAAAAAAAAAAAAAAAAAAAAAAAAAAAAAAAAAAAAAAAAAAAAAAAAAAAAAAAAAAAAAAAAAAAAAAAAAAAAAAAAAAAAAAAAAAAAAAAAAAAAAAAAAAAAAAAAAAAAAAAAAAAAAAAAAAAAAAAAAAAAAAAAAAAAAAAAAAAAAAAAAAAAAAAAAAAAAAAAAAAAAAAAAAAAAAAAAAAAAAAAAAAAAAAAAAAAAAAAAAAAAAAAAAAAAAAAAAAAAAAAAAAAAAAAAAAAAAAAAAAAAAAAAAAAAAAAAAAAAAAAAAAAAAAAAAAAAAAAAAAAAAAAAAAAAAAAAAAAAAAAAAAAAAAAAAAAAAAAAAAAAAAAAAAAAAAAAAAAAAAAAAAAAAAAAAAAAAAAAAAAAAAAAAAAAAAAAAAAAAAAAAAAAAAAAAAAAAAAAAAAAAAAAAAAAAAAAAAAAAAAAAAAAAAAAAAAAAAAAAAAAAAAAAAAAAAAAAAAAAAAAAAAAAAAAAAAAAAAAAAAAAAAAAAAAAAAAAAAAAAAAAAAAAAAAAAAAAAAAAAAAAAAAAAAAAAAAAAAAAAAAAAAAAAAAAAAAAAAAAAAAAAAAAAAAAAAAAAAAAAAAAAAAAAAAAAAAAAAAAAAAAAAAAAAAAAAAAAAAAAAAAAAAAAAAAAAAAAAAAAAAAAAAAAAAAAAAAAAAAAAAAAAAAAAAAAAAAAAAAAAAAAAAAAAAAAAAAAAAAAAAAAAAAAAAAAAAAAAAAAAAAAAAAAAAAAAAAAAAAAAAAAAAAAAAAAAAAAAAAAAAAAAAAAAAAAAAAAAAAAAAAAAAAAAAAAAAAAAAAAAAAAAAAAAAAAAAAAAAAAAAAAAAAAAAAAAAAAAAAAAAAAAAAAAAAAAAAAAAAAAAAAAAAAAAAAAAAAAAAAAAAAAAAAAAAAAAAAAAAAAAAAAAAAAAAAAAAAAAAAAAAAAAAAAAAAAAAAAAAAAAAAAAAAAAAAAAAAAAAAAAAAAAAAAAAAAAAAAAAAAAAAAAAAAAAAAAAAAAAAAAAAAAAAAAAAAAAAAAAAAAAAAAAAAAAAAAAAAAAAAAAAAAAAAAAAAAAAAAAAAAAAAAAAAAAAAAAAAAAAAAAAAAAAAAAAAAAAAAAAAAAAAAAAAAAAAAAAAAAAAAAAAAAAAAAAAAAAAAAAAAAAAAAAAAAAAAAAAAAAAAAAAAAAAAAAAAAAAAAAAAAAAAAAAAAAAAAAAAAAAAAAAAAAAAAAAAAAAAAAAAAAAAAAAAAAAAAAAAAAAAAAAAAAAAAAAAAAAAAAAAAAAAAAAAAAAAAAAAAAAAAAAAAAAAAAAAAAAAAAAAAAAAAAAAAAAAAAAAAAAAAAAAAAAAAAAAAAAAAAAAAAAAAAAAAAAAAAAAAAAAAAAAAAAAAAAAAAAAAAAAAAAAAAAAAAAAAAAAAAAAAAAAAAAAAAAAAAAAAAAAAAAAAAAAAPZYQGkOzIQqLQkNeXYvePJ4FywtGIOWXm1q3JJ/ez7wEMB+fswHaDoHbY7Q9J7b+DqSzhtmgejheZEdBq7ij1G0YVw=</c2pa:manifest></metadata>
<defs><clipPath id="clip-0">
<path d="M0 288L96 288L96 300L0 300Z M0 288" />
</clipPath>
<clipPath id="clip-1">
<path d="M0 286L96 286L96 300L0 300Z M0 286" />
</clipPath>
<clipPath id="clip-2">
<path d="M270 288L300 288L300 300L270 300Z M270 288" />
</clipPath>
<clipPath id="clip-3">
<path d="M271 286L300 286L300 300L271 300Z M271 286" />
</clipPath>
<clipPath id="clip-4">
<path d="M0 177L72 177L72 272L0 272Z M0 177" />
</clipPath>
<clipPath id="clip-5">
<path d="M0 0L96 0L96 85L0 85Z M0 0" />
</clipPath>
<clipPath id="clip-6">
<path d="M198 256L267 256L267 300L198 300Z M198 256" />
</clipPath>
<clipPath id="clip-7">
<path d="M92 262L191 262L191 300L92 300Z M92 262" />
</clipPath>
<clipPath id="clip-8">
<path d="M58 299L63 299L63 300L58 300Z M58 299" />
</clipPath>
<clipPath id="clip-9">
<path d="M101 299L106 299L106 300L101 300Z M101 299" />
</clipPath>
<clipPath id="clip-10">
<path d="M67 298L72 298L72 300L67 300Z M67 298" />
</clipPath>
<clipPath id="clip-11">
<path d="M67 297L71 297L71 300L67 300Z M67 297" />
</clipPath>
<clipPath id="clip-12">
<path d="M75 297L79 297L79 300L75 300Z M75 297" />
</clipPath>
<clipPath id="clip-13">
<path d="M91 299L96 299L96 300L91 300Z M91 299" />
</clipPath>
<clipPath id="clip-14">
<path d="M198 0L267 0L267 31L198 31Z M198 0" />
</clipPath>
<clipPath id="clip-15">
<path d="M92 0L191 0L191 26L92 26Z M92 0" />
</clipPath>
<clipPath id="clip-16">
<path d="M58 0L63 0L63 4L58 4Z M58 0" />
</clipPath>
<clipPath id="clip-17">
<path d="M101 0L106 0L106 3L101 3Z M101 0" />
</clipPath>
<clipPath id="clip-18">
<path d="M67 0L72 0L72 2L67 2Z M67 0" />
</clipPath>
<clipPath id="clip-19">
<path d="M67 0L71 0L71 1L67 1Z M67 0" />
</clipPath>
<clipPath id="clip-20">
<path d="M75 0L79 0L79 1L75 1Z M75 0" />
</clipPath>
<clipPath id="clip-21">
<path d="M91 0L96 0L96 3L91 3Z M91 0" />
</clipPath>
<clipPath id="clip-22">
<path d="M0 0L300 0L300 300L0 300Z M0 0" />
</clipPath>
<clipPath id="clip-23">
<path d="M0 0L96 0L96 87L0 87Z M0 0" />
</clipPath>
<clipPath id="clip-24">
<path d="M0 81L112 81L112 156L0 156Z M0 81" />
</clipPath>
<clipPath id="clip-25">
<path d="M281 177L300 177L300 272L281 272Z M281 177" />
</clipPath>
<clipPath id="clip-26">
<path d="M270 0L300 0L300 85L270 85Z M270 0" />
</clipPath>
<clipPath id="clip-27">
<path d="M57 0L300 0L300 300L57 300Z M57 0" />
</clipPath>
<clipPath id="clip-28">
<path d="M271 0L300 0L300 87L271 87Z M271 0" />
</clipPath>
<clipPath id="clip-29">
<path d="M253 81L300 81L300 156L253 156Z M253 81" />
</clipPath>
<clipPath id="clip-30">
<rect x="0" y="0" width="300" height="300" />
</clipPath>
</defs>
<g opacity="0.2"><g transform="matrix(1 0 0 -1 0 300)"><g clip-path="url(#clip-30)">
<g clip-path="url(#clip-0)">
<path fill="#7AE3E1" d="M6.3 293.9 C22.8 287.1 41.9 285.9 58.6 292.3 C75.3 298.6 89.1 312.8 93.6 330 C98.1 347.3 92.3 367.2 78.3 378.3 C71.2 383.9 60.6 386.9 53.3 381.6 C48.2 377.9 46.2 371.2 46.4 365 C46.5 358.7 48.4 352.6 49.7 346.5 C51.8 336.2 51 323.5 42.1 318 C34.3 313.2 23.9 316.4 16.3 321.5 C6.7 327.9 -20.8 351.4 -28.7 329.7 C-34.5 313.9 -4.8 298.5 6.3 293.9" />
</g>
<g clip-path="url(#clip-1)">
<path fill="#93999D" d="M62.8 386.6 C57 386.1 51.8 383.8 48.3 379 C44.2 373.4 43.6 366.6 44.9 360 C46.3 352.5 50 345.5 50.6 337.9 C51.1 331.7 49.3 324.9 43.4 321.9 C38.1 319.2 31.5 320.2 26.3 322.4 C19.9 325 14.6 329.9 9.2 334 C4 337.8 -1.5 341.2 -8 342.1 C-13.4 342.9 -19.2 342 -23.6 338.5 C-28.7 334.4 -29.7 327.4 -28.1 321.4 C-26.3 314.9 -22.2 309.1 -17.6 304.3 C-7.9 294.3 5.4 288.5 19.2 287 C34 285.3 49.3 288.5 62.5 295.3 C74.8 301.6 85.3 311.6 90.9 324.3 C96.2 336 97.4 349.6 92.6 361.7 C88.6 371.7 81.2 382 70.6 385.6 C68.1 386.4 65.5 386.7 62.8 386.6 C60.9 386.5 60.9 383.5 62.8 383.6 C73.7 384.1 82.2 375.3 87.1 366.5 C89.5 362 91.4 357.2 92.2 352.2 C93.2 345.7 92.6 339 90.9 332.8 C83.3 305.8 55 290.1 28.2 289.6 C14.5 289.3 0.8 293.1 -10.1 301.6 C-15.1 305.5 -19.6 310.4 -22.6 315.9 C-25.6 321.3 -27.5 328.6 -23.6 334.1 C-20.7 338.3 -15.3 339.6 -10.5 339.4 C-4.4 339.1 0.9 336.2 5.8 332.8 C11.3 328.8 16.4 324.1 22.4 320.9 C27.3 318.3 33.2 316.8 38.8 317.4 C44.6 318.2 49.6 321.5 52 327 C54.7 333.2 53.8 340.1 52 346.4 C50 353.2 47 359.9 47.3 367.2 C47.4 372.6 50.1 378.2 54.8 381.1 C57.3 382.6 60 383.3 62.8 383.6 C64.8 383.8 64.8 386.8 62.8 386.6" />
</g>
<g clip-path="url(#clip-2)">
<path fill="#7AE3E1" d="M306.3 293.9 C322.8 287.1 341.9 285.9 358.6 292.3 C375.3 298.6 389.1 312.8 393.6 330 C398.1 347.3 392.3 367.2 378.3 378.3 C371.2 383.9 360.6 386.9 353.3 381.6 C348.2 377.9 346.2 371.2 346.4 365 C346.5 358.7 348.4 352.6 349.7 346.5 C351.8 336.2 351 323.5 342.1 318 C334.3 313.2 323.9 316.4 316.3 321.5 C306.7 327.9 279.2 351.4 271.3 329.7 C265.5 313.9 295.2 298.5 306.3 293.9" />
</g>
<g clip-path="url(#clip-3)">
<path fill="#93999D" d="M362.8 386.6 C357 386.1 351.8 383.8 348.3 379 C344.2 373.4 343.6 366.6 344.9 360 C346.3 352.5 350 345.5 350.6 337.9 C351.1 331.7 349.3 324.9 343.4 321.9 C338.1 319.2 331.5 320.2 326.3 322.4 C319.9 325 314.6 329.9 309.2 334 C304 337.8 298.5 341.2 292 342.1 C286.6 342.9 280.8 342 276.4 338.5 C271.3 334.4 270.3 327.4 271.9 321.4 C273.7 314.9 277.8 309.1 282.4 304.3 C292.1 294.3 305.4 288.5 319.2 287 C334 285.3 349.3 288.5 362.5 295.3 C374.8 301.6 385.3 311.6 390.9 324.3 C396.2 336 397.4 349.6 392.6 361.7 C388.6 371.7 381.2 382 370.6 385.6 C368.1 386.4 365.5 386.7 362.8 386.6 C360.9 386.5 360.9 383.5 362.8 383.6 C373.7 384.1 382.2 375.3 387.1 366.5 C389.5 362 391.4 357.2 392.2 352.2 C393.2 345.7 392.6 339 390.9 332.8 C383.3 305.8 355 290.1 328.2 289.6 C314.5 289.3 300.8 293.1 289.9 301.6 C284.9 305.5 280.4 310.4 277.4 315.9 C274.4 321.3 272.5 328.6 276.4 334.1 C279.3 338.3 284.7 339.6 289.5 339.4 C295.6 339.1 300.9 336.2 305.8 332.8 C311.3 328.8 316.4 324.1 322.4 320.9 C327.3 318.3 333.2 316.8 338.8 317.4 C344.6 318.2 349.6 321.5 352 327 C354.7 333.2 353.8 340.1 352 346.4 C350 353.2 347 359.9 347.3 367.2 C347.4 372.6 350.1 378.2 354.8 381.1 C357.3 382.6 360 383.3 362.8 383.6 C364.8 383.8 364.8 386.8 362.8 386.6" />
</g>
<g clip-path="url(#clip-4)">
<path fill="#F889C5" d="M9 185 C-5.1 193.5 -15.2 208.3 -17.7 224.6 C-19.6 236.3 -17.5 249 -10.3 258.5 C-3.1 268 9.4 273.6 21 271 C34.7 267.8 43.5 255 50.9 243.1 C57.2 233.2 63.4 223.3 67.9 212.5 C70.7 205.8 72.9 198.4 71.4 191.2 C68.4 177.3 56.7 178.6 45.8 177.6 C32.9 176.4 20.3 178.2 9 185" />
</g>
<g clip-path="url(#clip-5)">
<path fill="#7AE3E1" d="M6.3 -6.1 C22.8 -12.9 41.9 -14.1 58.6 -7.7 C75.3 -1.4 89.1 12.8 93.6 30 C98.1 47.3 92.3 67.2 78.3 78.3 C71.2 83.9 60.6 86.9 53.3 81.6 C48.2 77.9 46.2 71.2 46.4 65 C46.5 58.7 48.4 52.6 49.7 46.5 C51.8 36.2 51 23.5 42.1 18 C34.3 13.2 23.9 16.4 16.3 21.5 C6.7 27.9 -20.8 51.4 -28.7 29.7 C-34.5 13.9 -4.8 -1.5 6.3 -6.1" />
</g>
<g clip-path="url(#clip-6)">
<path fill="#FEB771" d="M231.2 308.1L251.6 330.9L246.3 299.7L266.5 284.5L242.6 283.2L238.7 256.7L225.8 282.3L198.7 277.4L220.4 298.1L198.4 319.2Z M231.2 308.1" />
</g>
<path fill="#FEB771" d="M212.6 144.3L220.8 153.4L218.7 140.9L226.8 134.8L217.2 134.2L215.6 123.6L210.5 133.9L199.6 131.9L208.3 140.2L199.5 148.7Z M212.6 144.3" />
<g clip-path="url(#clip-7)">
<path fill="#F889C5" d="M117.3 262.4 C113.4 279.1 114.6 300.9 135.1 303.9 C146 305.5 156.1 298.4 161 289 C165 281.1 165.7 271.4 165 262.4L187 262.4 C192.8 276.6 190.5 293.8 181.2 306.1 C171.2 319.5 153.7 326.7 137.1 324.9 C120.5 323.1 102.3 313.9 97 298.1 C92.4 284.3 92.1 275.3 93.9 262.4Z M117.3 262.4" />
</g>
<g clip-path="url(#clip-8)">
<path fill="#93999D" d="M60.6 299.7 C62.8 299.7 62.8 303.2 60.6 303.2 C58.4 303.2 58.4 299.7 60.6 299.7" />
</g>
<path fill="#93999D" d="M54.2 293.3 C56.4 293.3 56.4 296.8 54.2 296.8 C52 296.8 52 293.3 54.2 293.3" />
<path fill="#93999D" d="M51.6 284.8 C53.9 284.8 53.9 288.3 51.6 288.3 C49.4 288.3 49.4 284.8 51.6 284.8" />
<path fill="#93999D" d="M52.1 276.3 C54.3 276.3 54.3 279.7 52.1 279.7 C49.9 279.7 49.9 276.3 52.1 276.3" />
<path fill="#93999D" d="M53.8 266.9 C56 266.9 56 270.4 53.8 270.4 C51.6 270.4 51.6 266.9 53.8 266.9" />
<path fill="#93999D" d="M58.9 260.1 C61.1 260.1 61.1 263.5 58.9 263.5 C56.7 263.5 56.7 260.1 58.9 260.1" />
<path fill="#93999D" d="M67.8 256.3 C70.1 256.3 70.1 259.7 67.8 259.7 C65.6 259.7 65.6 256.3 67.8 256.3" />
<path fill="#93999D" d="M77.6 255.4 C79.9 255.4 79.9 258.9 77.6 258.9 C75.4 258.9 75.4 255.4 77.6 255.4" />
<path fill="#93999D" d="M86.6 256.7 C88.8 256.7 88.8 260.1 86.6 260.1 C84.4 260.1 84.4 256.7 86.6 256.7" />
<path fill="#93999D" d="M96 260.5 C98.2 260.5 98.2 264 96 264 C93.7 264 93.7 260.5 96 260.5" />
<path fill="#93999D" d="M102.8 268.2L103.2 268.2 C103.4 268.2 103.7 268.2 103.9 268.3 C104.1 268.4 104.3 268.5 104.4 268.7 C104.6 268.9 104.7 269 104.8 269.2 C104.9 269.5 104.9 269.7 104.9 269.9 C104.9 270.1 104.9 270.2 104.9 270.4 C104.8 270.7 104.6 270.9 104.4 271.1 C104.3 271.2 104.2 271.3 104.1 271.4 C103.8 271.6 103.5 271.6 103.2 271.6L102.8 271.6 C102.5 271.6 102.3 271.6 102.1 271.5 C101.9 271.4 101.7 271.3 101.6 271.1 C101.4 271 101.3 270.8 101.2 270.6 C101.1 270.4 101 270.2 101.1 269.9 C101.1 269.8 101.1 269.6 101.1 269.5 C101.2 269.2 101.3 268.9 101.6 268.7 C101.7 268.6 101.8 268.5 101.9 268.4 C102.2 268.3 102.5 268.2 102.8 268.2" />
<path fill="#93999D" d="M105.3 279.3 C107.6 279.3 107.6 282.7 105.3 282.7 C103.1 282.7 103.1 279.3 105.3 279.3" />
<path fill="#93999D" d="M106.6 290.8 C108.8 290.8 108.8 294.2 106.6 294.2 C104.4 294.2 104.4 290.8 106.6 290.8" />
<g clip-path="url(#clip-9)">
<path fill="#93999D" d="M103.6 299.3 C105.8 299.3 105.9 302.7 103.6 302.7 C101.4 302.7 101.4 299.3 103.6 299.3" />
</g>
<g clip-path="url(#clip-10)">
<path fill="#93999D" d="M69.5 298 C71.8 298 71.8 301.5 69.5 301.5 C67.3 301.5 67.3 298 69.5 298" />
</g>
<path fill="#93999D" d="M60.2 290.3 C62.4 290.3 62.4 293.8 60.2 293.8 C58 293.8 57.9 290.3 60.2 290.3" />
<path fill="#93999D" d="M66.1 288.6 C68.4 288.6 68.4 292.1 66.1 292.1 C63.9 292.1 63.9 288.6 66.1 288.6" />
<path fill="#93999D" d="M58 281.8 C60.3 281.8 60.3 285.3 58 285.3 C55.8 285.3 55.8 281.8 58 281.8" />
<path fill="#93999D" d="M65.3 280.5 C67.5 280.5 67.5 284 65.3 284 C63.1 284 63.1 280.5 65.3 280.5" />
<path fill="#93999D" d="M60.6 272.5 C62.8 272.5 62.8 275.9 60.6 275.9 C58.4 275.9 58.4 272.5 60.6 272.5" />
<path fill="#93999D" d="M67.8 271.6 C70.1 271.6 70.1 275 67.8 275 C65.6 275 65.6 271.6 67.8 271.6" />
<path fill="#93999D" d="M65.3 262.7 C67.5 262.7 67.5 266.1 65.3 266.1 C63.1 266.1 63.1 262.7 65.3 262.7" />
<path fill="#93999D" d="M73.8 263.1 C76 263.1 76 266.5 73.8 266.5 C71.6 266.5 71.6 263.1 73.8 263.1" />
<path fill="#93999D" d="M84.5 261.8 C86.7 261.8 86.7 265.2 84.5 265.2 C82.2 265.2 82.2 261.8 84.5 261.8" />
<path fill="#93999D" d="M92.1 266.1 C94.3 266.1 94.3 269.5 92.1 269.5 C89.9 269.5 89.9 266.1 92.1 266.1" />
<path fill="#93999D" d="M82.3 266.1 C84.5 266.1 84.5 269.5 82.3 269.5 C80.1 269.5 80.1 266.1 82.3 266.1" />
<path fill="#93999D" d="M78.1 273.3 C80.3 273.3 80.3 276.8 78.1 276.8 C75.8 276.8 75.8 273.3 78.1 273.3" />
<path fill="#93999D" d="M89.1 277.1 C91.4 277.1 91.4 280.6 89.1 280.6 C86.9 280.6 86.9 277.1 89.1 277.1" />
<path fill="#93999D" d="M76.8 280.5 C79 280.5 79 284 76.8 284 C74.6 284 74.6 280.5 76.8 280.5" />
<path fill="#93999D" d="M71.7 289.1 C73.9 289.1 73.9 292.5 71.7 292.5 C69.5 292.5 69.5 289.1 71.7 289.1" />
<g clip-path="url(#clip-11)">
<path fill="#93999D" d="M68.7 297.2 C70.9 297.2 70.9 300.6 68.7 300.6 C66.5 300.6 66.5 297.2 68.7 297.2" />
</g>
<g clip-path="url(#clip-12)">
<path fill="#93999D" d="M77.2 297.2 C79.4 297.2 79.4 300.6 77.2 300.6 C75 300.6 75 297.2 77.2 297.2" />
</g>
<g clip-path="url(#clip-13)">
<path fill="#93999D" d="M93.4 299.3 C95.6 299.3 95.6 302.7 93.4 302.7 C91.2 302.7 91.2 299.3 93.4 299.3" />
</g>
<path fill="#93999D" d="M96.8 293.8 C99 293.8 99 297.2 96.8 297.2 C94.6 297.2 94.6 293.8 96.8 293.8" />
<path fill="#93999D" d="M96 284.8 C98.2 284.8 98.2 288.3 96 288.3 C93.7 288.3 93.7 284.8 96 284.8" />
<path fill="#93999D" d="M96 276.3 C98.2 276.3 98.2 279.7 96 279.7 C93.7 279.7 93.7 276.3 96 276.3" />
<path fill="#93999D" d="M89.1 285.2 C91.4 285.2 91.4 288.7 89.1 288.7 C86.9 288.7 86.9 285.2 89.1 285.2" />
<path fill="#93999D" d="M86.6 284L86.6 284.4 C86.6 284.6 86.6 284.9 86.5 285.1 C86.4 285.3 86.3 285.5 86.1 285.6 C85.9 285.8 85.8 285.9 85.5 286 C85.3 286.1 85.1 286.1 84.9 286.1 C84.7 286.1 84.6 286.1 84.4 286.1 C84.1 286 83.9 285.8 83.7 285.6 C83.6 285.5 83.5 285.4 83.4 285.3 C83.2 285 83.2 284.7 83.2 284.4L83.2 284 C83.2 283.7 83.2 283.5 83.3 283.3 C83.4 283.1 83.5 282.9 83.7 282.8 C83.8 282.6 84 282.5 84.2 282.4 C84.4 282.3 84.6 282.2 84.9 282.2 C85 282.3 85.2 282.3 85.3 282.3 C85.6 282.4 85.9 282.5 86.1 282.8 C86.2 282.9 86.3 283 86.4 283.1 C86.5 283.4 86.6 283.7 86.6 284" />
<path fill="#93999D" d="M79.3 287.4 C81.6 287.4 81.6 290.8 79.3 290.8 C77.1 290.8 77.1 287.4 79.3 287.4" />
<path fill="#93999D" d="M84.5 292.1 C86.7 292.1 86.7 295.5 84.5 295.5 C82.2 295.5 82.2 292.1 84.5 292.1" />
<path fill="#93999D" d="M87.4 269.9 C89.7 269.9 89.7 273.3 87.4 273.3 C85.2 273.3 85.2 269.9 87.4 269.9" />
<path fill="#93999D" d="M96.8 268.2 C99 268.2 99 271.6 96.8 271.6 C94.6 271.6 94.6 268.2 96.8 268.2" />
<path fill="#93999D" d="M108.7 273.3 C111 273.3 111 276.8 108.7 276.8 C106.5 276.8 106.5 273.3 108.7 273.3" />
<g clip-path="url(#clip-14)">
<path fill="#FEB771" d="M231.2 8.1L251.6 30.9L246.3 -0.3L266.5 -15.5L242.6 -16.8L238.7 -43.3L225.8 -17.7L198.7 -22.6L220.4 -1.9L198.4 19.2Z M231.2 8.1" />
</g>
<g clip-path="url(#clip-15)">
<path fill="#F889C5" d="M117.3 -37.6 C113.4 -20.9 114.6 0.9 135.1 3.9 C146 5.5 156.1 -1.6 161 -11 C165 -18.9 165.7 -28.6 165 -37.6L187 -37.6 C192.8 -23.4 190.5 -6.2 181.2 6.1 C171.2 19.5 153.7 26.7 137.1 24.9 C120.5 23.1 102.3 13.9 97 -1.9 C92.4 -15.7 92.1 -24.7 93.9 -37.6Z M117.3 -37.6" />
</g>
<g clip-path="url(#clip-16)">
<path fill="#93999D" d="M60.6 -0.3 C62.8 -0.3 62.8 3.2 60.6 3.2 C58.4 3.2 58.4 -0.3 60.6 -0.3" />
</g>
<g clip-path="url(#clip-17)">
<path fill="#93999D" d="M103.6 -0.7 C105.8 -0.7 105.9 2.7 103.6 2.7 C101.4 2.7 101.4 -0.7 103.6 -0.7" />
</g>
<path fill="#93999D" d="M99.8 6.1 C102 6.1 102 9.6 99.8 9.6 C97.6 9.6 97.6 6.1 99.8 6.1" />
<path fill="#93999D" d="M90.4 9.1 C92.6 9.1 92.6 12.5 90.4 12.5 C88.2 12.5 88.2 9.1 90.4 9.1" />
<path fill="#93999D" d="M81.5 11.2 C83.7 11.2 83.7 14.7 81.5 14.7 C79.3 14.7 79.3 11.2 81.5 11.2" />
<path fill="#93999D" d="M71.2 8.2 C73.5 8.2 73.5 11.7 71.2 11.7 C69 11.7 69 8.2 71.2 8.2" />
<g clip-path="url(#clip-18)">
<path fill="#93999D" d="M69.5 -2 C71.8 -2 71.8 1.5 69.5 1.5 C67.3 1.5 67.3 -2 69.5 -2" />
</g>
<path fill="#93999D" d="M65.7 4 C67.9 4 67.9 7.4 65.7 7.4 C63.5 7.4 63.5 4 65.7 4" />
<g clip-path="url(#clip-19)">
<path fill="#93999D" d="M68.7 -2.8 C70.9 -2.8 70.9 0.6 68.7 0.6 C66.5 0.6 66.5 -2.8 68.7 -2.8" />
</g>
<path fill="#93999D" d="M73.4 1.4 C75.6 1.4 75.6 4.9 73.4 4.9 C71.2 4.9 71.2 1.4 73.4 1.4" />
<g clip-path="url(#clip-20)">
<path fill="#93999D" d="M77.2 -2.8 C79.4 -2.8 79.4 0.6 77.2 0.6 C75 0.6 75 -2.8 77.2 -2.8" />
</g>
<path fill="#93999D" d="M81.5 2.7 C83.7 2.7 83.7 6.1 81.5 6.1 C79.3 6.1 79.3 2.7 81.5 2.7" />
<path fill="#93999D" d="M88.7 2.3 C90.9 2.3 90.9 5.7 88.7 5.7 C86.5 5.7 86.5 2.3 88.7 2.3" />
<g clip-path="url(#clip-21)">
<path fill="#93999D" d="M93.4 -0.7 C95.6 -0.7 95.6 2.7 93.4 2.7 C91.2 2.7 91.2 -0.7 93.4 -0.7" />
</g>
<g clip-path="url(#clip-22)">
<path fill="none" stroke-width="13" stroke-linecap="butt" stroke-linejoin="miter" stroke="#FF7540" stroke-miterlimit="10" d="M0 -0 C5.9 16.8 6.4 36.3 -2.6 51.6 C-11.5 67 -31.1 76.6 -47.9 70.7 C-56.4 67.8 -63.2 61.6 -70.8 56.7 C-78.3 51.8 -87.7 48.2 -96.1 51.4 C-102.9 53.9 -107.4 60.3 -110.6 66.7 C-113.8 73.2 -116.1 80.2 -120.4 86 C-128.6 97.3 -144.3 102.4 -157.6 98.3 C-170.9 94.2 -180.9 81 -181.3 67.1 C-181.5 61.3 -180 54.2 -176 50 C-172.1 45.7 -165.4 43.4 -160.4 46.3 C-155.1 49.3 -153.6 56.7 -148.3 59.7 C-142.2 63.1 -134.4 58.9 -130.5 53.1 C-126.6 47.3 -125.2 40.3 -122 34.1 C-112.9 16.9 -88.2 10.2 -71.7 20.6 C-66.6 23.8 -62.4 28.2 -57.4 31.5 C-52.4 34.8 -46.1 37 -40.4 34.9 C-35.1 32.9 -31.7 27.5 -29.9 22.1 C-28.1 16.6 -27.6 10.9 -25.6 5.5 C-23.7 0.1 -20 -5.2 -14.5 -6.7 C-9 -8.3 -1.9 -5.4 0 -0Z M0 -0" transform="matrix(1, 0, 0, 1, 122.3, 74.1)" />
</g>
<path fill="#FEB771" d="M149.7 110.4 C145.1 119.4 138 126.8 131.6 134.6 C125.2 142.3 119.2 151 117.5 161 C115.8 170.9 119.6 182.4 128.5 187.1 C135.3 190.6 143.9 189.6 150.6 185.9 C157.3 182.1 162.4 176.1 166.7 169.7 C179.2 150.6 184.8 127.1 182.3 104.4 C181.2 94.8 174.4 74.9 160.5 79.9 C151.2 83.3 153.8 102.5 149.7 110.4" />
<path fill="#93999D" d="M35.5 159.3 C39.2 154.9 42.3 150.2 44.9 145.1 C45.7 143.4 48.3 144.9 47.4 146.6 C44.8 151.9 41.5 156.9 37.7 161.4 C37.1 162.1 36.1 162 35.5 161.4 C34.9 160.8 35 159.9 35.5 159.3" />
<path fill="#93999D" d="M48.3 169.2 C51.3 164.9 53.9 160.3 55.8 155.4 C56.1 154.7 56.8 154.1 57.7 154.4 C58.4 154.6 59 155.4 58.7 156.2 C56.7 161.3 54.1 166.2 50.9 170.7 C50.4 171.3 49.6 171.7 48.8 171.2 C48.2 170.8 47.8 169.8 48.3 169.2" />
<path fill="#93999D" d="M64.5 175.7 C64.7 169.9 65.5 164.1 66.9 158.4 C67.3 156.6 70.2 157.4 69.8 159.2 C68.4 164.6 67.7 170.1 67.5 175.7 C67.5 177.6 64.5 177.6 64.5 175.7" />
<path fill="#93999D" d="M80.6 171.8 C80.2 167 79.8 162.2 79.5 157.3 C79.4 156.5 80.2 155.8 81 155.8 C81.8 155.8 82.4 156.5 82.5 157.3 C82.8 162.2 83.2 167 83.6 171.8 C83.7 172.6 82.9 173.3 82.1 173.3 C81.2 173.3 80.7 172.6 80.6 171.8" />
<path fill="#93999D" d="M97.1 173.4 C94.9 169.3 93.3 164.9 92.4 160.4 C92.3 159.6 92.7 158.8 93.5 158.6 C94.2 158.3 95.2 158.8 95.3 159.6 C96.1 163.9 97.6 168 99.7 171.9 C100.7 173.6 98.1 175.1 97.1 173.4" />
<path fill="#93999D" d="M120.8 150.8 C127.3 150.6 134.2 152.9 138.2 158.3 C140.1 160.8 141.2 163.9 141.4 167 C141.6 170 140.8 173.5 138.5 175.6 C136.1 177.8 132.6 177.3 131.2 174.2 C129.8 171.1 131.8 167.6 133.8 165.2 C137.8 160.5 144.2 158.2 150.2 159.3 C156.9 160.6 162.5 166.2 163.9 172.9 C164.3 174.8 161.4 175.6 161 173.7 C160.1 169.1 157 165.2 152.7 163.3 C148.4 161.3 143.4 161.8 139.4 164.3 C137.4 165.5 135.8 167.2 134.6 169.3 C134 170.3 133.4 171.7 133.9 173 C134.4 174 135.3 174.3 136.3 173.6 C138.2 172.2 138.5 169.2 138.4 167 C138.3 164.6 137.4 162.3 136.1 160.4 C132.7 155.5 126.5 153.6 120.8 153.8 C118.9 153.9 118.9 150.9 120.8 150.8" />
<path fill="#93999D" d="M142.4 143.8 C143.2 141.9 144 140 144.8 138.1 C145 137.7 145.1 137.4 145.5 137.2 C145.8 137 146.3 136.9 146.6 137 C147 137.2 147.4 137.4 147.5 137.7 C147.7 138.1 147.8 138.5 147.7 138.9 C146.9 140.8 146.1 142.7 145.3 144.6 C145.1 145 145 145.3 144.6 145.5 C144.3 145.7 143.8 145.7 143.4 145.6 C143.1 145.5 142.7 145.3 142.5 144.9 C142.4 144.6 142.2 144.1 142.4 143.8" />
<path fill="#93999D" d="M147.3 145.2 C148.7 142.5 150.1 139.8 151.5 137.1 C151.9 136.4 152.9 136.1 153.6 136.6 C154.3 137 154.5 137.9 154.1 138.6 C152.7 141.3 151.3 144 149.9 146.7 C149.5 147.4 148.5 147.7 147.9 147.3 C147.1 146.8 146.9 146 147.3 145.2" />
<path fill="#93999D" d="M148.6 124.2 C150.1 123.7 151.8 123.7 153.3 124.2 C153.6 124.3 154 124.5 154.2 124.9 C154.4 125.2 154.4 125.7 154.3 126 C154.1 126.8 153.3 127.3 152.5 127.1 C152.1 127 151.8 126.9 151.4 126.8 C151.5 126.8 151.6 126.9 151.8 126.9 C151.2 126.8 150.7 126.8 150.1 126.9 C150.2 126.9 150.4 126.8 150.5 126.8 C150.1 126.9 149.7 127 149.4 127.1 C148.6 127.3 147.7 126.8 147.5 126 C147.4 125.2 147.8 124.4 148.6 124.2" />
<path fill="#93999D" d="M142.9 281.8 C143.6 277.6 141.9 273.1 138.8 270.2 C137.4 268.9 139.5 266.8 140.9 268.1 C144.9 271.8 146.6 277.3 145.8 282.6 C145.6 283.4 144.6 283.9 143.9 283.7 C143.1 283.5 142.8 282.6 142.9 281.8" />
<path fill="#93999D" d="M150.1 279.5 C148.8 275.9 147.5 272.4 146.2 268.8 C145.9 268 146.5 267.1 147.2 266.9 C148.1 266.7 148.8 267.2 149.1 268 C150.4 271.6 151.7 275.1 153 278.7 C153.3 279.5 152.7 280.3 151.9 280.5 C151.1 280.8 150.4 280.3 150.1 279.5" />
<g clip-path="url(#clip-23)">
<path fill="#93999D" d="M62.8 86.6 C57 86.1 51.8 83.8 48.3 79 C44.2 73.4 43.6 66.6 44.9 60 C46.3 52.5 50 45.5 50.6 37.9 C51.1 31.7 49.3 24.9 43.4 21.9 C38.1 19.2 31.5 20.2 26.3 22.4 C19.9 25 14.6 29.9 9.2 34 C4 37.8 -1.5 41.2 -8 42.1 C-13.4 42.9 -19.2 42 -23.6 38.5 C-28.7 34.4 -29.7 27.4 -28.1 21.4 C-26.3 14.9 -22.2 9.1 -17.6 4.3 C-7.9 -5.7 5.4 -11.5 19.2 -13 C34 -14.7 49.3 -11.5 62.5 -4.7 C74.8 1.6 85.3 11.6 90.9 24.3 C96.2 36 97.4 49.6 92.6 61.7 C88.6 71.7 81.2 82 70.6 85.6 C68.1 86.4 65.5 86.7 62.8 86.6 C60.9 86.5 60.9 83.5 62.8 83.6 C73.7 84.1 82.2 75.3 87.1 66.5 C89.5 62 91.4 57.2 92.2 52.2 C93.2 45.7 92.6 39 90.9 32.8 C83.3 5.8 55 -9.9 28.2 -10.4 C14.5 -10.7 0.8 -6.9 -10.1 1.6 C-15.1 5.5 -19.6 10.4 -22.6 15.9 C-25.6 21.3 -27.5 28.6 -23.6 34.1 C-20.7 38.3 -15.3 39.6 -10.5 39.4 C-4.4 39.1 0.9 36.2 5.8 32.8 C11.3 28.8 16.4 24.1 22.4 20.9 C27.3 18.3 33.2 16.8 38.8 17.4 C44.6 18.2 49.6 21.5 52 27 C54.7 33.2 53.8 40.1 52 46.4 C50 53.2 47 59.9 47.3 67.2 C47.4 72.6 50.1 78.2 54.8 81.1 C57.3 82.6 60 83.3 62.8 83.6 C64.8 83.8 64.8 86.8 62.8 86.6" />
</g>
<path fill="#93999D" d="M15.2 76.3 C13.3 73.8 12.1 70.3 13.2 67.2 C13.8 65.7 14.9 64.4 16.5 63.9 C18.1 63.4 19.7 64 20.9 65 C22.1 66.1 22.7 67.7 23 69.2 C23.4 70.9 23.6 72.7 23.3 74.5 C23.1 75.9 22.2 77.4 20.8 78.1 C19.3 78.8 17.6 78.6 16.3 77.8 C14.9 76.9 14.1 75.6 13.5 74.1 C12.9 72.5 12.6 70.8 13 69.1 C13.3 67.6 14.6 66.2 16.2 65.9 C17.9 65.6 19.4 66.6 20.2 68 C21 69.4 21.4 71.1 21.6 72.7 C21.7 74.3 21.7 76.2 20.1 77 C18.7 77.8 16.9 77.3 16 76.1 C14.9 74.9 14.8 73.1 14.8 71.5 C14.8 69.6 15.9 67.5 18.1 67.6 C19.9 67.8 20.7 69.5 21 71 C21.1 71.9 21.2 72.9 20.7 73.7 C20.1 74.6 19 75 18 74.8 C17.1 74.5 16.3 73.8 16 72.9 C15.6 72 15.7 70.9 15.9 70 C16.1 69.2 17 68.7 17.8 68.9 C18.6 69.1 19 70 18.8 70.8 C18.8 71.1 18.7 71.5 18.7 71.9 C18.8 72 18.8 71.9 18.7 71.9 C18.7 71.8 18.8 71.9 18.8 71.9 C18.6 71.9 18.6 71.8 18.4 71.9 C18.2 72 18.2 72.1 18.1 72.2 C18 72.3 18.1 72.1 18.1 72.1 C18.1 72.3 18.1 72 18.1 72 C18.1 71.9 18.1 71.8 18.1 71.7 C18.1 71.9 18 71.5 18 71.4 C18 71.2 17.9 71 17.8 70.8 C17.9 71 17.7 70.6 17.7 70.5 C17.6 70.4 17.8 70.6 17.7 70.5 C17.5 70.4 17.7 70.6 17.7 70.6 C17.7 70.6 17.9 70.6 18 70.6 C18 70.7 18.1 70.4 17.9 70.6 C18 70.5 17.9 70.8 17.9 70.7 C17.7 71.3 17.8 72.4 17.9 73.1 C17.9 73.5 18 73.8 18.2 74.2 C18.1 74 18.5 74.4 18.4 74.3 C18.5 74.4 18.6 74.4 18.6 74.4 C18.6 74.4 18.4 74.4 18.7 74.4 C18.8 74.4 18.7 74.4 18.7 74.4 C18.7 74.4 18.4 74.5 18.6 74.4 C18.8 74.3 18.6 74.4 18.6 74.4 C18.5 74.7 18.6 74.3 18.6 74.2 C18.6 74.3 18.6 73.8 18.6 73.7 C18.6 72.7 18.4 71.7 18.1 70.7 C17.9 70.2 17.9 70 17.6 69.6 C17.6 69.5 17.4 69.2 17.4 69.2 C17.3 69.1 17.2 69 17.1 68.9 C17 68.9 17 68.9 16.9 68.9 C17.1 68.9 16.6 68.9 16.8 68.9 C16.9 68.8 16.7 68.9 16.7 68.9 C16.5 69 16.2 69.2 16.1 69.3 C15.9 69.6 15.9 69.8 15.8 70.2 C15.8 70.7 15.8 71.2 15.9 71.7 C16.2 72.6 16.4 73.5 16.9 74.3 C17.3 74.9 17.9 75.3 18.5 75.5 C19 75.6 19.5 75.5 19.9 75.1 C20.4 74.5 20.5 73.6 20.5 72.8 C20.4 71.8 20.3 70.7 20.1 69.7 C19.9 68.9 19.6 68 19 67.4 C18.8 67.2 18.4 66.9 18.1 66.8 C17.8 66.7 17.5 66.7 17.2 66.8 C17 66.9 16.6 67.2 16.5 67.4 C16.2 67.7 16 68.1 15.9 68.6 C15.5 70.4 16.1 72.6 17.3 74.2 C17.8 74.8 18 75.7 17.3 76.3 C16.8 76.8 15.7 76.9 15.2 76.3" />
<path fill="#93999D" d="M29.1 74.1 C28.2 73 27.9 71.8 28.1 70.4 C28.3 69.2 29.1 68.1 30.1 67.4 C32.4 65.9 35.6 67 37 69.2 C38.5 71.5 38 74.8 36 76.7 C34.9 77.7 33.4 78.3 31.9 78 C30.6 77.8 29.3 76.8 28.6 75.7 C27.9 74.4 27.7 72.9 27.9 71.5 C28 69.9 28.6 68.5 29.8 67.5 C31 66.5 32.7 66.4 34.1 67.2 C35.4 68.1 36.1 69.5 36.2 71 C36.3 72.3 36 73.9 35.3 75 C34.8 75.6 34.3 76.2 33.5 76.4 C32.7 76.6 31.9 76.4 31.2 75.9 C30.2 75.1 29.9 73.8 29.8 72.5 C29.8 71.7 29.8 70.8 30.2 70.1 C30.7 69.3 31.5 68.8 32.4 68.7 C33.3 68.6 34.2 69.2 34.7 69.9 C35.1 70.7 35.2 71.6 35.1 72.5 C34.9 73.2 34.8 74 34.2 74.6 C33.5 75.3 32.4 75.4 31.5 74.9 C30.1 74 30 72.1 30.2 70.6 C30.4 69.1 31.5 67.8 33.2 67.8 C34 67.8 34.7 68.2 35.2 68.9 C35.6 69.6 35.4 70.6 34.7 71 C33.9 71.4 33.1 71.1 32.6 70.4 C32.6 70.5 33 70.8 32.9 70.7 C32.7 70.6 33.2 70.9 33.2 70.8 C33.2 70.8 33 70.8 33 70.8 C33 70.8 33.4 70.7 33.1 70.8 C32.8 70.9 33.3 70.7 33.2 70.8 C33 70.9 33.4 70.5 33.2 70.8 C33.2 70.7 33.4 70.4 33.2 70.7 C33.1 71 33.3 70.5 33.2 70.8 C33.2 70.9 33.1 71 33.1 71.1 C33.2 70.8 33.1 71.1 33.1 71.2 C33.1 71.4 33.1 71.6 33.1 71.8 C33.1 71.9 33.1 72 33.2 72 C33.2 72 33.2 72.5 33.2 72.3 C33.1 72 33.2 72.5 33.2 72.5 C33.3 72.7 33.2 72.5 33.1 72.4 C33.1 72.3 32.9 72.2 33.1 72.3 C32.9 72.3 32.7 72.2 32.5 72.2 C32.3 72.3 32.2 72.4 32.1 72.5 C32 72.6 32 72.7 32 72.6 C32.1 72.4 32 72.9 32 72.5 C32 72.4 32.1 72.2 32.1 72 C32.1 72.3 32.1 71.9 32.1 71.9 C32.1 71.8 32.1 71.7 32.1 71.6 C32.1 71.5 32.1 71.4 32.1 71.5 C32.1 71.5 32.1 71.5 32.1 71.6 C32.1 71.4 32.1 71.4 32.1 71.6 C32.1 71.5 31.9 71.4 32.2 71.6 C32.4 71.8 32.3 71.6 32.2 71.6 C32.3 71.6 32.4 71.7 32.5 71.7 C32.5 71.7 32.9 71.6 32.8 71.7 C32.6 71.7 32.9 71.6 32.9 71.5 C32.9 71.5 32.8 71.7 32.8 71.7 C32.9 71.3 32.8 71.9 32.8 71.6 C32.8 71.9 32.8 72.1 32.8 72.3 C32.8 72.5 32.8 72.7 32.8 72.9 C32.8 72.7 32.8 72.7 32.8 72.8 C32.9 72.9 32.9 73 32.9 73.1 C32.9 73.2 32.9 73.2 33 73.3 C33 73.4 33 73.4 33 73.4 C33.1 73.6 33.1 73.6 33 73.4 C33 73.4 33.1 73.6 33.1 73.6 C33.2 73.8 33 73.5 33 73.5 C33 73.5 33.1 73.5 33.1 73.6 C33.2 73.7 33.2 73.7 33.1 73.6 C33 73.6 33 73.5 33 73.5 C33.1 73.6 33.1 73.6 32.9 73.5 C33 73.5 33.2 73.5 32.8 73.5 C33.1 73.5 32.8 73.5 32.7 73.5 C33 73.4 32.5 73.6 32.7 73.5 C32.8 73.4 32.7 73.5 32.6 73.6 C32.6 73.5 32.7 73.5 32.7 73.5 C32.8 73.3 32.5 73.8 32.7 73.5 C32.8 73.4 32.8 73.3 32.8 73.3 C32.9 73.2 32.9 73.1 32.9 73.1 C32.8 73.3 32.9 73.1 32.9 73 C33 72.9 33.1 72.7 33.1 72.5 C33.1 72.4 33.1 72.3 33.2 72.2 C33.2 71.9 33.2 72.3 33.2 72 C33.2 71.8 33.2 71.5 33.2 71.2 C33.2 71.2 33.2 71.1 33.2 71 C33.2 71.2 33.2 71 33.2 70.9 C33.2 70.8 33.1 70.7 33.1 70.6 C33.1 70.5 32.9 70.2 33.1 70.5 C33 70.4 33 70.3 33 70.3 C32.9 70.2 32.7 69.9 32.9 70.2 C32.9 70.1 32.8 70 32.8 70 C32.8 70 32.5 69.7 32.6 69.9 C32.8 70 32.5 69.8 32.5 69.8 C32.4 69.7 32.3 69.7 32.3 69.7 C32.5 69.8 32.4 69.7 32.3 69.7 C32.3 69.7 31.9 69.6 32.2 69.6 C32.4 69.6 32 69.7 32 69.7 C32.2 69.6 32.1 69.7 31.9 69.7 C31.8 69.7 31.7 69.8 31.9 69.7 C31.9 69.7 31.8 69.8 31.7 69.8 C31.4 70 31.8 69.7 31.7 69.8 C31.6 69.9 31.5 70 31.4 70 C31.4 70.1 31.3 70.3 31.4 70 C31.4 70.1 31.3 70.2 31.3 70.3 C31.2 70.4 31.2 70.5 31.1 70.6 C31.1 70.7 31.1 70.7 31.1 70.5 C31.1 70.6 31.1 70.7 31 70.7 C31 70.9 30.9 71.1 30.9 71.3 C30.9 71.4 30.9 71.5 30.8 71.6 C30.9 71.3 30.8 71.6 30.8 71.6 C30.8 72.1 30.8 72.6 30.8 73.1 C30.8 72.8 30.8 73 30.9 73.1 C30.9 73.2 30.9 73.3 30.9 73.4 C31 73.5 31 73.6 31 73.8 C31.1 73.8 31.2 74 31 73.8 C31.1 74 31.2 74.1 31.3 74.3 C31.4 74.4 31.6 74.6 31.4 74.4 C31.5 74.4 31.5 74.5 31.6 74.6 C31.7 74.7 31.8 74.7 31.8 74.8 C31.6 74.6 31.8 74.8 31.8 74.8 C31.9 74.8 32 74.9 32.1 75 C32.2 75 32.4 75.1 32.1 75 C32.3 75 32.4 75.1 32.6 75.1 C32.3 75 32.5 75.1 32.6 75.1 C32.7 75.1 33.1 75.1 32.9 75.1 C32.6 75.1 33 75.1 33 75.1 C33.1 75 33.2 75 33.3 75 C33 75.1 33.2 75 33.3 75 C33.3 74.9 33.4 74.9 33.5 74.8 C33.6 74.8 33.7 74.7 33.8 74.7 C33.7 74.7 33.6 74.8 33.8 74.7 C33.9 74.5 34.1 74.4 34.2 74.2 C34 74.4 34.2 74.2 34.3 74.1 C34.3 74.1 34.4 74 34.4 73.9 C34.5 73.8 34.7 73.4 34.5 73.7 C34.6 73.5 34.7 73.3 34.7 73.1 C34.8 73 34.8 72.9 34.8 72.8 C34.9 72.4 34.8 73.1 34.8 72.7 C34.8 72.5 34.8 72.3 34.8 72.1 C34.8 72 34.8 71.9 34.8 71.8 C34.8 71.7 34.8 71.6 34.8 71.9 C34.8 71.7 34.7 71.5 34.7 71.3 C34.7 71.2 34.6 71.1 34.6 71 C34.7 71.2 34.6 71 34.5 70.9 C34.5 70.8 34.4 70.8 34.4 70.7 C34.4 70.6 34.1 70.4 34.3 70.6 C34.2 70.5 34.1 70.3 33.9 70.2 C34.2 70.4 34 70.2 33.9 70.2 C33.8 70.1 33.7 70.1 33.6 70 C33.5 70 33.4 69.9 33.4 69.9 C33.5 70 33.5 69.9 33.3 69.9 C33.2 69.8 32.9 69.7 32.7 69.7 C32.8 69.7 33.1 69.8 32.8 69.7 C32.7 69.7 32.6 69.7 32.4 69.7 C32.4 69.7 32.3 69.7 32.2 69.8 C32.4 69.7 32.5 69.7 32.3 69.8 C32.2 69.8 32.2 69.8 32.2 69.8 C32.1 69.8 32 69.8 31.9 69.9 C31.8 69.9 31.8 69.9 32 69.8 C31.9 69.8 31.9 69.9 31.8 69.9 C31.8 69.9 31.7 70 31.6 70 C31.4 70.2 31.8 69.8 31.6 70 C31.5 70.1 31.5 70.1 31.4 70.2 C31.4 70.2 31.4 70.3 31.3 70.3 C31.3 70.4 31.3 70.4 31.4 70.2 C31.3 70.2 31.1 70.6 31.1 70.7 C31.2 70.6 31.2 70.6 31.2 70.5 C31.2 70.5 31.2 70.6 31.1 70.6 C31.1 70.7 31.1 70.8 31.1 70.9 C31 71 31 71.2 31 71.2 C31 71.1 31 71.1 31 71 C31 71.1 31 71.2 31 71.2 C31 71.3 31 71.4 31 71.4 C31 71.5 31 71.5 31 71.6 C31 71.7 31 71.7 31 71.4 C31 71.5 31.1 71.9 31.2 71.9 C31.1 71.9 31.1 71.8 31.1 71.8 C31.1 71.8 31.1 71.9 31.2 71.9 C31.2 72 31.5 72.3 31.2 72 C31.7 72.6 31.8 73.5 31.2 74.1 C30.6 74.6 29.6 74.7 29.1 74.1" />
<path fill="#93999D" d="M22.7 60.1 C21.8 59.2 21.8 57.7 22.6 56.6 C23.5 55.5 25 55.3 26.3 55.9 C27.5 56.5 28.1 57.8 28.2 59.1 C28.3 60.1 28.1 61.3 27.5 62.2 C26.8 63.3 25.6 64 24.3 63.7 C23.1 63.3 22.3 62.3 22.1 61.2 C21.9 59.9 22.2 58.5 23.2 57.7 C24.3 56.6 26.2 56.5 27.2 57.8 C27.7 58.4 27.9 59.3 27.7 60.1 C27.4 61 26.5 61.6 25.6 61.7 C24.7 61.8 23.8 61.3 23.4 60.5 C22.9 59.6 23.1 58.5 23.8 57.8 C24.3 57.2 25.4 57.2 25.9 57.8 C26.5 58.4 26.5 59.2 25.9 59.9 C26.1 59.7 26.1 59.6 26.1 59.7 C26 59.8 26 59.7 26.2 59.5 C26.1 59.6 26.1 59.6 26.1 59.7 C26.1 59.6 26.1 59.4 26.2 59.3 C26.2 59.4 26.2 59.4 26.2 59.5 C26.1 59.4 26.1 59.2 26.1 59.1 C26.1 59.2 26.1 59.2 26.2 59.3 C26.1 59.1 26.1 59 25.9 58.9 C25.9 58.9 25.8 58.8 25.7 58.8 C25.9 58.8 25.8 58.8 25.6 58.7 C25.6 58.7 25.7 58.7 25.8 58.8 C25.6 58.7 25.5 58.7 25.4 58.7 C25.4 58.7 25.5 58.7 25.6 58.7 C25.4 58.7 25.3 58.7 25.2 58.8 C25.2 58.7 25.3 58.7 25.4 58.7 C25.1 58.8 25.1 58.8 25.2 58.8 C25 58.9 24.9 59 25 58.9 C25.1 58.8 25 58.9 24.9 59.1 C24.9 59 24.9 59 24.8 59.1 C24.7 59.4 24.8 59.2 24.8 59.1 C24.8 59.2 24.8 59.4 24.8 59.5 C24.8 59.4 24.8 59.3 24.8 59.2 C24.8 59.4 24.8 59.5 24.8 59.6 C24.8 59.6 24.8 59.5 24.8 59.4 C24.9 59.7 24.9 59.7 24.8 59.6 C24.8 59.5 24.8 59.5 25 59.7 C24.9 59.6 24.9 59.7 25.1 59.8 C25.1 59.8 25 59.8 25 59.8 C25.2 59.9 25.3 59.9 25.1 59.8 C25.1 59.8 25.1 59.8 25 59.8 C25.1 59.8 25.3 59.8 25.4 59.9 C25.3 59.8 25.2 59.8 25 59.9 C25.2 59.8 25.3 59.8 25.4 59.8 C25.3 59.8 25.2 59.9 25.1 59.9 C25.4 59.8 25.4 59.7 25.3 59.8 C25.3 59.8 25.2 59.8 25.2 59.8 C25 60 25.5 59.6 25.2 59.8 C25.2 59.8 25.2 59.9 25.2 59.9 C25.1 60 25.1 60 25.3 59.8 C25.2 59.8 25.2 59.9 25.1 60 C25.1 60 25.1 60.1 25.1 60.1 C25.2 59.9 25.2 59.8 25.1 60 C25.1 60.1 25 60.3 25 60.5 C25 60.4 25 60.2 25.1 60.1 C25 60.3 25 60.5 25.1 60.7 C25 60.6 25 60.4 25 60.3 C25 60.5 25.1 60.6 25.1 60.8 C25 60.4 25 60.6 25.1 60.7 C25.1 60.8 25.2 60.8 25.2 60.9 C25.1 60.7 25 60.6 25.1 60.8 C25.1 60.8 25.2 60.8 25.2 60.8 C25.4 61 24.9 60.6 25.1 60.8 C25.1 60.8 25.2 60.8 25.2 60.8 C25.3 60.9 25.3 60.9 25 60.7 C25.1 60.8 25.2 60.8 25.2 60.8 C25.1 60.8 25 60.8 24.8 60.7 C24.9 60.8 25.1 60.8 25.2 60.7 C25 60.8 24.9 60.8 24.8 60.8 C24.8 60.8 25.1 60.7 24.9 60.8 C24.6 60.9 24.9 60.7 25 60.7 C24.6 60.9 24.8 60.9 24.8 60.8 C24.9 60.8 24.9 60.7 25 60.7 C25.1 60.5 24.8 60.8 24.9 60.8 C24.9 60.8 24.9 60.7 24.9 60.7 C25 60.6 25.1 60.5 25.1 60.4 C25.2 60.2 25 60.6 25 60.6 C25.1 60.6 25.1 60.5 25.1 60.4 C25.2 60.2 25.2 60 25.2 59.8 C25.2 59.9 25.2 60 25.2 60.2 C25.2 59.8 25.3 59.4 25.2 59 C25.2 59.1 25.2 59.3 25.3 59.4 C25.2 59.3 25.2 59.2 25.2 59.1 C25.2 59 25.1 58.8 25.1 58.8 C25.1 58.8 25.3 59.1 25.2 58.9 C25.1 58.9 25.1 58.8 25.1 58.8 C25.1 58.8 25 58.6 25 58.6 C25 58.6 25.3 58.9 25.1 58.7 C25 58.7 24.8 58.5 25 58.6 C25.2 58.8 24.9 58.6 24.9 58.6 C24.8 58.5 24.6 58.5 24.9 58.6 C25.1 58.7 24.9 58.6 24.9 58.6 C24.8 58.5 24.7 58.5 24.6 58.5 C24.7 58.5 24.8 58.5 25 58.6 C24.8 58.5 24.7 58.5 24.6 58.5 C24.7 58.5 24.9 58.5 25 58.5 C24.9 58.5 24.9 58.5 24.8 58.5 C24.7 58.6 24.7 58.6 24.8 58.5 C25 58.4 25 58.4 24.9 58.5 C24.8 58.6 24.8 58.6 25 58.4 C25 58.4 24.9 58.5 24.9 58.5 C24.7 58.7 25.1 58.2 25 58.4 C25 58.4 24.9 58.5 24.9 58.5 C24.9 58.5 25 58.1 25 58.4 C25 58.4 24.9 58.5 24.9 58.6 C24.9 58.5 25 58.3 25 58.2 C25 58.3 25 58.4 25 58.5 C25 58.4 24.9 58.3 24.9 58.1 C24.9 58.2 24.9 58.2 25 58.2 C25 58.5 24.8 57.9 24.9 58.1 C24.9 58.1 24.9 58.1 24.9 58.2 C25 58.3 24.7 57.9 24.8 58 C25.4 58.6 25.4 59.6 24.8 60.1 C24.2 60.7 23.3 60.7 22.7 60.1" />
<path fill="#93999D" d="M8.5 54.8 C8.4 53.3 8.6 51.5 9.8 50.4 C10.5 49.9 11.3 49.5 12.2 49.6 C13 49.6 13.8 50 14.4 50.6 C16.4 53 16.1 57.6 12.7 58.7 C11.1 59.2 9.4 58.4 8.6 56.9 C7.7 55.3 8 53.5 8.8 52 C9.2 51.3 9.8 50.6 10.5 50.3 C11.3 49.8 12.4 49.8 13.2 50.3 C14.7 51.1 15.4 53 14.9 54.6 C14.6 55.6 13.9 56.4 12.9 56.7 C11.9 57 10.8 56.8 10.1 56.2 C8.6 54.9 9.2 52.1 11.1 51.7 C11.9 51.6 12.8 51.9 13 52.8 C13.1 53.5 12.7 54.4 11.9 54.6 C11.9 54.6 11.8 54.6 11.8 54.6 C11.7 54.7 12.1 54.5 12 54.6 C11.9 54.6 12.3 54.3 12.1 54.5 C12 54.6 12.3 54.2 12.2 54.3 C12.2 54.4 12.2 54.4 12.1 54.4 C12.2 54.4 12.2 54.1 12.2 54.2 C12.2 54.3 12.2 54.4 12.2 54.4 C12.2 54.4 12.2 54 12.2 54.3 C12.2 54.5 12.1 53.9 12.2 54.2 C12.3 54.3 12.1 54 12.1 54 C12.2 54 12.2 54.1 12.2 54.1 C12.2 54.1 12 53.8 12.1 53.9 C12.2 54.1 11.9 53.7 12 53.9 C12 53.9 12.2 54 12 53.9 C11.8 53.8 11.9 53.8 12 53.9 C12.2 53.9 11.6 53.9 11.9 53.8 C11.9 53.8 12 53.8 12.1 53.8 C12 53.8 11.8 53.9 11.9 53.9 C11.9 53.8 11.9 53.8 12 53.8 C12.2 53.8 11.8 53.9 11.9 53.9 C11.9 53.8 12 53.8 12 53.8 C12.2 53.7 11.9 53.7 11.9 53.9 C11.9 53.9 12 53.8 12 53.8 C12.1 53.7 11.9 54 11.9 53.9 C11.9 53.9 12.1 53.6 12 53.8 C11.9 54 12 53.7 12 53.6 C12.1 53.4 12 54 12 53.6 C12 53.5 12 53.3 12 53.3 C12 53.3 12.1 53.6 12.1 53.4 C12 53.4 12 53.4 12 53.3 C12 53.3 12 53.2 12 53.1 C11.9 52.9 12 53.2 12 53.2 C12 53.2 11.9 53 11.9 53 C11.8 52.8 12 53.1 12 53.1 C11.9 53.1 11.9 53 11.9 53 C11.8 52.9 11.8 52.9 11.7 52.9 C11.6 52.8 11.9 53 11.9 53 C11.8 52.9 11.8 52.9 11.8 52.9 C11.7 52.9 11.7 52.9 11.7 52.9 C11.6 52.8 11.6 52.8 11.9 52.9 C11.8 52.9 11.8 52.9 11.7 52.9 C11.6 52.8 11.9 52.9 11.9 52.9 C11.9 52.9 11.7 52.9 11.7 52.9 C11.8 52.9 12 52.8 11.9 52.9 C11.6 53 12.1 52.7 11.9 52.9 C11.9 52.9 11.8 52.9 11.8 53 C11.6 53.1 12 52.8 11.9 52.9 C11.8 53 11.7 53.1 11.6 53.2 C11.4 53.3 11.8 52.9 11.6 53.2 C11.5 53.4 11.4 53.6 11.3 53.8 C11.2 54 11.3 53.7 11.3 53.7 C11.3 53.7 11.3 53.9 11.2 53.9 C11.2 54 11.2 54.1 11.1 54.2 C11.1 54.4 11.1 54.5 11.1 54.6 C11 54.8 11.1 54.5 11.1 54.5 C11.1 54.5 11.1 54.7 11.1 54.7 C11.1 54.8 11.1 55 11.1 55.1 C11.1 55.3 11.1 54.9 11.1 55 C11 55 11.1 55.2 11.1 55.2 C11.1 55.2 11.2 55.3 11.2 55.4 C11.2 55.4 11 55.1 11.1 55.3 C11.2 55.3 11.2 55.4 11.2 55.5 C11.2 55.5 11.4 55.8 11.3 55.6 C11.1 55.4 11.3 55.6 11.4 55.7 C11.4 55.7 11.4 55.7 11.5 55.8 C11.6 55.9 11.4 55.7 11.4 55.7 C11.4 55.7 11.6 55.8 11.7 55.9 C11.7 55.9 11.4 55.8 11.5 55.8 C11.6 55.8 11.6 55.8 11.6 55.9 C11.7 55.9 11.7 55.9 11.8 55.9 C12 55.9 11.5 55.9 11.6 55.9 C11.7 55.9 12 55.8 11.8 55.9 C11.5 55.9 11.9 55.8 12 55.8 C12.1 55.8 11.8 55.9 11.8 55.9 C11.9 55.8 12 55.8 12 55.8 C12.1 55.7 12.2 55.7 12.2 55.6 C12.2 55.6 12 55.9 12.2 55.7 C12.2 55.6 12.2 55.6 12.3 55.6 C12.3 55.5 12.3 55.5 12.4 55.5 C12.5 55.3 12.2 55.7 12.3 55.5 C12.4 55.4 12.4 55.4 12.5 55.3 C12.5 55.2 12.6 55 12.5 55.2 C12.4 55.4 12.5 55.2 12.5 55.2 C12.5 55.1 12.6 55 12.6 54.9 C12.6 54.8 12.6 54.8 12.6 54.7 C12.7 54.5 12.6 54.8 12.6 54.8 C12.7 54.7 12.6 54.1 12.6 54 C12.6 53.9 12.6 53.8 12.6 53.7 C12.6 53.7 12.7 54 12.6 53.9 C12.6 53.8 12.6 53.7 12.6 53.6 C12.5 53.5 12.5 53.3 12.4 53.1 C12.4 53 12.5 53.3 12.5 53.3 C12.5 53.2 12.4 53.2 12.4 53.1 C12.4 53 12.3 52.9 12.3 52.8 C12.2 52.8 12.2 52.7 12.2 52.7 C12.1 52.6 12.4 52.9 12.3 52.8 C12.2 52.7 12.1 52.6 12 52.6 C12 52.5 12.2 52.7 12.2 52.7 C12.1 52.6 12.1 52.6 12 52.6 C12 52.5 11.9 52.5 11.9 52.5 C11.9 52.5 12.2 52.6 12.1 52.6 C12 52.6 11.9 52.5 11.9 52.5 C11.9 52.6 12.3 52.5 12 52.6 C12 52.6 12 52.6 11.9 52.6 C11.7 52.6 12.3 52.5 12 52.6 C12 52.6 11.9 52.6 11.9 52.6 C11.7 52.6 12.2 52.4 12 52.6 C11.9 52.6 11.9 52.6 11.8 52.6 C11.7 52.7 12 52.4 11.9 52.6 C11.8 52.7 11.8 52.7 11.7 52.8 C11.6 52.9 11.8 52.7 11.8 52.7 C11.8 52.7 11.7 52.9 11.6 52.9 C11.6 52.9 11.6 53 11.6 53 C11.5 53.2 11.6 53 11.6 52.9 C11.6 53 11.5 53.3 11.5 53.4 C11.5 53.4 11.5 53.5 11.5 53.5 C11.4 53.7 11.5 53.2 11.5 53.5 C11.5 53.7 11.5 53.8 11.5 54 C11.5 54.3 11.5 54.6 11.5 54.8 C11.5 55.6 10.8 56.4 10 56.3 C9.1 56.3 8.5 55.7 8.5 54.8" />
<path fill="#93999D" d="M30.5 58.1 C30.5 56.9 31.2 55.7 32.3 55.1 C33.4 54.6 34.8 54.5 35.8 55.2 C36.9 56 37.5 57.1 37.6 58.3 C37.7 59.5 37.2 60.7 36.4 61.5 C35.4 62.4 34.1 62.8 32.8 62.4 C31.6 62.1 30.5 61.1 30.2 59.9 C29.9 58.7 30.3 57.3 31.2 56.5 C32.1 55.5 33.8 55.2 35 56 C35.7 56.6 36.2 57.4 36.2 58.3 C36.2 59.1 35.8 60 35.1 60.4 C34.3 60.9 33.4 60.9 32.7 60.5 C31.9 60.1 31.4 59.3 31.4 58.5 C31.4 57.7 32.1 57 32.9 57 C33.8 57 34.4 57.7 34.4 58.5 C34.4 58.5 34.4 58.6 34.4 58.6 C34.4 58.5 34.4 58.3 34.4 58.2 C34.4 58.3 34.4 58.3 34.4 58.4 C34.4 58.2 34.3 58.1 34.3 58 C34.3 58.1 34.3 58.1 34.4 58.2 C34.3 58.1 34.2 58 34.1 57.9 C34.2 57.9 34.2 58 34.3 58 C34.2 57.9 34.1 57.9 34 57.8 C34 57.8 34.1 57.9 34.2 57.9 C34.1 57.9 34 57.8 33.8 57.8 C33.9 57.8 34 57.8 34.1 57.8 C34 57.8 33.8 57.8 33.7 57.8 C33.8 57.8 33.9 57.8 34 57.8 C33.8 57.8 33.7 57.8 33.6 57.8 C33.6 57.8 33.7 57.8 33.8 57.8 C33.7 57.8 33.5 57.9 33.4 57.9 C33.5 57.9 33.5 57.9 33.6 57.8 C33.4 57.9 33.4 58 33.2 58.1 C33.3 58 33.4 58 33.4 57.9 C33.3 58 33.3 58.1 33.2 58.2 C33.2 58.1 33.3 58.1 33.3 58 C33.3 58.1 33.2 58.2 33.2 58.3 C33.2 58.2 33.2 58.2 33.2 58.1 C33.2 58.2 33.2 58.3 33.2 58.5 C33.2 58.4 33.2 58.3 33.2 58.2 C33.2 58.3 33.2 58.4 33.2 58.6 C33.2 58.4 33.2 58.3 33.2 58.2 C33.2 58.3 33.3 58.5 33.3 58.6 C33.3 58.5 33.2 58.4 33.2 58.3 C33.2 58.4 33.3 58.5 33.4 58.6 C33.3 58.6 33.3 58.5 33.2 58.4 C33.3 58.5 33.4 58.6 33.5 58.7 C33.4 58.6 33.3 58.6 33.2 58.5 C33.4 58.6 33.5 58.6 33.6 58.7 C33.5 58.6 33.3 58.6 33.2 58.5 C33.3 58.6 33.5 58.6 33.6 58.6 C33.4 58.6 33.3 58.6 33.1 58.6 C33.3 58.6 33.4 58.6 33.5 58.5 C33.4 58.6 33.3 58.6 33.1 58.7 C33.3 58.6 33.4 58.6 33.5 58.5 C33.4 58.6 33.2 58.6 33.1 58.7 C33.2 58.6 33.3 58.6 33.4 58.5 C33.3 58.6 33.2 58.7 33.1 58.8 C33.2 58.7 33.3 58.6 33.3 58.5 C33.2 58.6 33.1 58.8 33.1 59 C33.1 58.8 33.2 58.7 33.2 58.6 C33.1 58.8 33.1 59 33.1 59.1 C33.1 59 33.1 58.9 33.1 58.8 C33.1 58.9 33.1 59.1 33.1 59.3 C33.1 59.2 33.1 59 33.1 58.9 C33.1 59.1 33.1 59.2 33.2 59.4 C33.2 59.3 33.1 59.1 33.1 59 C33.1 59.2 33.2 59.3 33.3 59.4 C33.2 59.3 33.1 59.2 33.1 59.1 C33.2 59.3 33.3 59.4 33.4 59.5 C33.3 59.4 33.2 59.3 33.1 59.3 C33.3 59.4 33.4 59.5 33.6 59.6 C33.5 59.5 33.4 59.5 33.3 59.4 C33.5 59.5 33.7 59.6 33.9 59.6 C33.8 59.6 33.6 59.6 33.5 59.5 C33.7 59.6 33.9 59.6 34 59.5 C33.9 59.6 33.8 59.6 33.6 59.6 C33.8 59.6 34 59.5 34.2 59.4 C34.1 59.5 34 59.5 33.9 59.6 C34.1 59.5 34.2 59.4 34.4 59.3 C34.3 59.3 34.2 59.4 34.1 59.5 C34.3 59.4 34.4 59.2 34.6 59 C34.5 59.1 34.4 59.2 34.3 59.3 C34.5 59.1 34.6 58.9 34.7 58.7 C34.6 58.9 34.6 59 34.5 59.1 C34.6 58.9 34.6 58.7 34.7 58.5 C34.7 58.6 34.6 58.8 34.6 58.9 C34.6 58.7 34.6 58.5 34.6 58.3 C34.6 58.4 34.7 58.5 34.7 58.7 C34.6 58.4 34.6 58.2 34.5 58 C34.5 58.1 34.6 58.2 34.6 58.4 C34.6 58.2 34.4 58 34.3 57.8 C34.4 57.9 34.5 58 34.6 58.1 C34.4 57.9 34.3 57.8 34.1 57.7 C34.2 57.7 34.3 57.8 34.4 57.9 C34.3 57.8 34.1 57.7 34 57.6 C34.1 57.7 34.2 57.7 34.3 57.8 C34.2 57.7 34 57.7 33.9 57.7 C34 57.7 34.1 57.7 34.3 57.7 C34.1 57.7 33.9 57.7 33.8 57.7 C33.9 57.7 34 57.7 34.2 57.7 C34 57.7 33.8 57.7 33.6 57.8 C33.8 57.7 33.9 57.7 34 57.6 C33.8 57.7 33.6 57.8 33.4 58 C33.6 57.9 33.7 57.8 33.8 57.7 C33.6 57.8 33.5 57.9 33.4 58.1 C33.5 58 33.6 57.9 33.6 57.8 C33.5 57.9 33.5 58 33.4 58.2 C33.4 58.1 33.5 57.9 33.5 57.8 C33.5 58 33.4 58.1 33.4 58.3 C33.4 58.2 33.4 58 33.5 57.9 C33.5 58 33.5 58 33.5 58.1 C33.4 58.9 32.8 59.6 32 59.6 C31.1 59.5 30.4 58.9 30.5 58.1" />
<path fill="#93999D" d="M18.1 49 C18.2 48.1 18.6 47.1 19.3 46.5 C19.8 46.1 20.2 45.8 20.7 45.7 C21.3 45.5 21.8 45.5 22.4 45.6 C23.3 45.8 24.1 46.5 24.6 47.3 C25.2 48.1 25.3 49.2 25 50.1 C24.8 50.6 24.5 51 24.2 51.4 C23.8 51.8 23.3 52.1 22.8 52.3 C21.9 52.7 20.8 52.5 20 52 C19.2 51.5 18.5 50.7 18.4 49.7 C18.3 49.2 18.3 48.6 18.5 48.1 C18.7 47.5 19.1 47 19.6 46.6 C20.2 46.1 20.9 46 21.6 46.2 C22.2 46.3 22.7 46.7 23 47.2 C23.3 47.7 23.4 48.3 23.3 48.8 C23.3 49.1 23.2 49.4 23 49.7 C22.9 49.9 22.6 50.2 22.3 50.4 C21.9 50.6 21.5 50.7 21.1 50.5 C20.8 50.4 20.4 50.2 20.2 49.8 C20 49.5 19.9 49.1 20.1 48.7 C20.2 48.3 20.4 47.9 20.7 47.8 C20.8 47.8 20.8 47.8 20.9 47.7 C20.8 47.8 20.7 47.9 20.6 48 C20.6 47.9 20.6 47.9 20.7 47.8 C20.6 47.9 20.5 48 20.4 48.1 C20.5 48.1 20.5 48.1 20.5 48 C20.5 48.1 20.4 48.3 20.4 48.4 C20.4 48.3 20.4 48.3 20.4 48.2 C20.4 48.4 20.4 48.5 20.3 48.6 C20.4 48.6 20.4 48.5 20.4 48.4 C20.4 48.5 20.4 48.7 20.4 48.8 C20.4 48.7 20.4 48.6 20.3 48.5 C20.4 48.6 20.4 48.8 20.5 48.9 C20.4 48.8 20.4 48.7 20.4 48.7 C20.4 48.8 20.5 48.9 20.6 49 C20.5 48.9 20.5 48.9 20.4 48.8 C20.5 48.9 20.6 49 20.7 49 C20.7 49 20.6 49 20.6 49 C20.7 49 20.8 49.1 20.9 49.1 C20.9 49.1 20.9 49.1 20.8 49.1 C20.9 49.1 21.1 49.1 21.2 49.1 C21.1 49.1 21 49.1 20.9 49.1 C21.1 49.1 21.2 49.1 21.3 49.1 C21.2 49.1 21.1 49.1 21.1 49.1 C21.2 49.1 21.3 49 21.4 49 C21.3 49 21.2 49.1 21.1 49.1 C21.2 49.1 21.3 49 21.4 48.9 C21.4 49 21.3 49.1 21.2 49.2 C21.3 49.1 21.4 49 21.4 48.9 C21.4 49 21.3 49.1 21.2 49.2 C21.3 49.1 21.3 49 21.4 48.8 C21.3 49 21.3 49.1 21.3 49.2 C21.3 49.1 21.3 49 21.3 48.8 C21.3 49 21.3 49.1 21.3 49.3 C21.3 49.1 21.3 49 21.3 48.9 C21.3 49 21.3 49.2 21.4 49.3 C21.3 49.2 21.3 49.1 21.2 49 C21.3 49.2 21.4 49.3 21.5 49.5 C21.4 49.4 21.4 49.3 21.3 49.2 C21.4 49.3 21.5 49.4 21.7 49.6 C21.6 49.5 21.5 49.4 21.4 49.3 C21.5 49.4 21.7 49.5 21.8 49.6 C21.7 49.5 21.6 49.5 21.5 49.4 C21.6 49.5 21.7 49.5 21.9 49.5 C21.7 49.5 21.6 49.5 21.5 49.5 C21.6 49.5 21.8 49.5 21.9 49.5 C21.8 49.5 21.7 49.5 21.5 49.5 C21.7 49.5 21.9 49.5 22 49.4 C21.9 49.5 21.8 49.5 21.6 49.6 C21.8 49.5 22 49.4 22.1 49.3 C22 49.3 21.9 49.4 21.8 49.5 C22 49.4 22.1 49.3 22.2 49.1 C22.1 49.2 22 49.3 21.9 49.4 C22.1 49.3 22.2 49.1 22.2 49 C22.2 49.1 22.1 49.2 22.1 49.3 C22.1 49.2 22.2 49.1 22.2 48.9 C22.2 49 22.2 49.2 22.1 49.3 C22.2 49.1 22.2 49 22.1 48.8 C22.2 48.9 22.2 49.1 22.2 49.2 C22.2 49 22.1 48.9 22.1 48.7 C22.1 48.8 22.2 49 22.2 49.1 C22.1 48.9 22.1 48.8 22 48.6 C22 48.7 22.1 48.8 22.2 48.9 C22.1 48.8 21.9 48.7 21.8 48.6 C21.9 48.6 22 48.7 22.1 48.8 C22 48.7 21.8 48.6 21.6 48.5 C21.7 48.6 21.9 48.6 22 48.7 C21.8 48.6 21.7 48.5 21.5 48.5 C21.6 48.5 21.8 48.6 21.9 48.6 C21.7 48.6 21.6 48.6 21.4 48.6 C21.5 48.6 21.7 48.5 21.8 48.5 C21.6 48.5 21.5 48.6 21.3 48.7 C21.4 48.6 21.6 48.6 21.7 48.5 C21.5 48.6 21.3 48.7 21.2 48.8 C21.3 48.7 21.4 48.6 21.5 48.6 C21.4 48.7 21.2 48.8 21.1 49 C21.2 48.9 21.3 48.8 21.3 48.7 C21.2 48.8 21.1 49 21.1 49.1 C21.1 49 21.2 48.9 21.2 48.8 C21.2 48.9 21.1 49.1 21.1 49.3 C21.1 49.1 21.1 49 21.1 48.9 C21.1 48.9 21.1 49 21.1 49 C21.1 49.4 21 49.8 20.7 50.1 C20.4 50.3 20 50.5 19.6 50.5 C18.8 50.5 18.1 49.9 18.1 49" />
<path fill="#93999D" d="M29.2 49.3 C28.7 48.4 28.7 47.4 29.1 46.5 C29.5 45.7 30.3 45 31.2 44.9 C31.7 44.8 32.2 44.8 32.7 44.9 C33.1 45.1 33.5 45.3 33.9 45.6 C34.7 46.2 35.1 47.1 35.2 48.2 C35.2 49.1 34.8 50 34.2 50.8 C33.6 51.5 32.7 51.9 31.8 52 C29.8 52.2 28.1 50.2 28.6 48.3 C28.8 47.3 29.6 46.6 30.6 46.3 C31 46.2 31.5 46.2 32 46.3 C32.4 46.4 32.9 46.7 33.2 47.1 C33.5 47.4 33.7 47.7 33.7 48.1 C33.7 48.5 33.5 48.9 33.2 49.2 C32.9 49.5 32.6 49.7 32.2 49.6 C31.8 49.6 31.3 49.5 31.1 49.2 C31.1 49.1 31 49.1 30.9 49 C31 49.1 31.1 49.2 31.2 49.2 C31.2 49.2 31.1 49.2 31 49.1 C31.1 49.2 31.2 49.2 31.4 49.3 C31.3 49.2 31.2 49.2 31.1 49.2 C31.2 49.2 31.3 49.2 31.5 49.2 C31.4 49.2 31.2 49.2 31.1 49.2 C31.3 49.2 31.4 49.2 31.5 49.2 C31.4 49.2 31.3 49.2 31.1 49.3 C31.3 49.2 31.4 49.2 31.5 49.1 C31.4 49.2 31.3 49.3 31.2 49.3 C31.3 49.2 31.4 49.2 31.5 49.1 C31.4 49.2 31.3 49.2 31.3 49.3 C31.4 49.2 31.4 49.1 31.5 49 C31.5 49.1 31.4 49.1 31.4 49.2 C31.4 49.1 31.5 49 31.5 48.9 C31.5 49 31.5 49.1 31.4 49.2 C31.5 49 31.5 48.9 31.5 48.8 C31.5 48.9 31.5 49 31.5 49.1 C31.5 49 31.5 48.9 31.4 48.7 C31.5 48.9 31.5 49 31.5 49.1 C31.5 49 31.4 48.8 31.4 48.7 C31.5 48.9 31.5 49 31.6 49.1 C31.6 49 31.5 48.9 31.4 48.8 C31.5 48.9 31.6 49 31.7 49.1 C31.6 49.1 31.5 49 31.4 48.9 C31.5 49 31.6 49.1 31.8 49.1 C31.7 49.1 31.5 49 31.4 49 C31.5 49 31.7 49 31.8 49.1 C31.7 49 31.5 49 31.4 49 C31.5 49 31.7 49 31.8 49 C31.7 49 31.6 49 31.4 49.1 C31.6 49 31.8 49 31.9 48.9 C31.8 49 31.7 49 31.5 49.1 C31.7 49 31.9 48.9 32 48.8 C31.9 48.9 31.8 48.9 31.7 49 C31.9 48.9 32 48.8 32.2 48.6 C32.1 48.7 32 48.8 31.9 48.9 C32 48.8 32.1 48.6 32.2 48.4 C32.1 48.6 32.1 48.7 32 48.8 C32.1 48.6 32.2 48.4 32.2 48.2 C32.2 48.4 32.2 48.5 32.1 48.6 C32.2 48.4 32.2 48.2 32.1 48 C32.2 48.1 32.2 48.3 32.2 48.4 C32.2 48.2 32.1 48 32.1 47.9 C32.1 48 32.2 48.1 32.2 48.2 C32.1 48.1 32.1 47.9 31.9 47.8 C32 47.9 32.1 48 32.2 48.1 C32.1 48 32 47.9 31.9 47.8 C32 47.9 32.1 48 32.2 48 C32.1 47.9 31.9 47.8 31.8 47.8 C31.9 47.8 32 47.9 32.1 47.9 C32 47.9 31.8 47.8 31.7 47.8 C31.8 47.8 31.9 47.8 32.1 47.8 C31.9 47.8 31.8 47.8 31.6 47.8 C31.8 47.8 31.9 47.8 32 47.8 C31.9 47.8 31.7 47.8 31.6 47.9 C31.7 47.9 31.8 47.8 32 47.8 C31.8 47.8 31.7 47.9 31.6 47.9 C31.7 47.9 31.8 47.8 31.9 47.7 C31.8 47.8 31.8 47.9 31.7 48 C31.8 47.9 31.8 47.8 31.9 47.7 C31.8 47.8 31.8 47.9 31.7 48 C31.8 47.9 31.8 47.8 31.9 47.7 C31.8 47.8 31.8 47.9 31.8 48.1 C31.8 47.9 31.8 47.8 31.8 47.7 C31.8 47.8 31.8 47.9 31.8 48.1 C31.8 47.9 31.8 47.8 31.8 47.7 C31.8 47.8 31.8 47.9 31.8 48 C31.8 47.8 31.7 47.7 31.7 47.6 C31.7 47.7 31.8 47.7 31.8 47.8 C32.2 48.5 32 49.5 31.2 49.8 C30.5 50.2 29.6 50 29.2 49.3" />
<path fill="#93999D" d="M36.3 41.1 C33.8 39.3 33.4 35.7 35.6 33.4 C36.6 32.4 38.1 31.8 39.5 31.8 C41 31.8 42.5 32.4 43.6 33.4 C45.7 35.3 46.1 38.5 44.8 41 C43.5 43.4 40.5 44.5 38 43.7 C36.7 43.3 35.5 42.4 34.9 41.2 C34.3 40 34.1 38.6 34.4 37.3 C35.1 34.4 38.1 32.5 41 33.4 C44 34.3 45.4 38.1 43.3 40.6 C42.3 41.7 40.8 42.2 39.3 42 C37.8 41.8 36.5 40.4 36.2 39 C36 37.3 36.7 35.6 38.2 34.9 C39.9 34.2 41.7 34.8 42.7 36.3 C43.6 37.8 43.1 39.7 41.6 40.7 C40.1 41.7 38.2 41.1 37.3 39.7 C36.8 39 36.7 38.1 36.9 37.3 C37.1 36.5 38 36 38.8 36.2 C39.6 36.5 40 37.2 39.8 38.1 C39.7 38.4 39.8 37.8 39.8 38.1 C39.8 37.6 39.8 38.1 39.8 38.1 C39.8 38.1 39.8 38 39.8 38 C39.8 38 39.8 38.1 39.8 38.1 C40 38.2 39.8 38.3 39.8 38.1 C39.9 38.1 39.9 38.2 39.9 38.2 C40 38.3 40 38.3 39.9 38.2 C39.9 38.2 39.9 38.2 39.9 38.2 C40.1 38.3 40.1 38.3 39.9 38.2 C39.9 38.2 40.1 38.3 40.1 38.3 C39.9 38.2 39.9 38.2 40 38.2 C39.8 38.3 39.8 38.3 40 38.2 C40.3 38.1 39.7 38.3 40 38.2 C40.1 38.1 40.1 38 40 38.2 C40 38.2 40.2 37.9 40 38.2 C40.1 38.1 40.2 37.8 40.1 38.1 C40.1 38.1 40.2 38 40.2 37.9 C40.3 37.6 40.2 38.2 40.2 37.9 C40.2 38.3 40.1 37.9 40.1 37.8 C40.2 38 40.2 38 40.2 37.9 C40.2 37.9 40.1 37.8 40.1 37.8 C40.1 37.8 40.2 37.9 40.2 37.9 C40.1 37.8 40.1 37.8 40 37.7 C39.8 37.5 40.3 37.8 40 37.7 C39.9 37.6 39.9 37.6 39.8 37.6 C40.2 37.8 39.8 37.5 39.7 37.6 C39.8 37.6 39.8 37.6 39.9 37.6 C39.8 37.6 39.7 37.6 39.7 37.6 C39.3 37.6 39.8 37.5 39.7 37.6 C39.6 37.6 39.4 37.7 39.7 37.6 C39.6 37.6 39.2 37.9 39.5 37.7 C39.4 37.7 39.4 37.8 39.3 37.9 C39.1 38 39.4 37.6 39.3 37.9 C39.2 38 39.1 38.3 39.2 37.9 C39.2 38 39.1 38.2 39.1 38.3 C39.1 38.2 39.1 37.9 39.2 38.2 C39.2 38.2 39.2 38.3 39.2 38.3 C39.2 38.5 39.2 38.5 39.2 38.3 C39.1 38.3 39.2 38.6 39.3 38.6 C39.2 38.3 39.3 38.6 39.3 38.7 C39.5 39 39.1 38.5 39.4 38.8 C39.4 38.8 39.7 39 39.4 38.8 C39.5 38.9 39.6 38.9 39.6 39 C39.7 39 40 39.1 39.7 39 C39.7 39 40 39.1 40 39.1 C40 39.1 39.7 39.1 39.9 39.1 C40 39.1 40.2 39.1 40.2 39.1 C40 39.1 40 39.1 40.2 39.1 C40.2 39.1 40.3 39 40.4 39 C40.4 39 40.6 39 40.6 38.9 C40.5 39 40.5 39 40.4 39 C40.5 39 40.6 39 40.6 38.9 C40.7 38.9 40.9 38.8 40.9 38.7 C40.9 38.8 40.8 38.8 40.8 38.8 C40.8 38.8 40.9 38.8 40.9 38.7 C41 38.7 41 38.6 41.1 38.5 C41.3 38.3 41 38.8 41.1 38.5 C41.1 38.4 41.3 38.3 41.3 38.2 C41.2 38.3 41.2 38.3 41.2 38.4 C41.2 38.3 41.2 38.2 41.3 38.2 C41.3 38.1 41.3 38.1 41.3 38.1 C41.3 37.9 41.3 37.9 41.3 38.1 C41.3 38.1 41.3 37.9 41.3 37.8 C41.3 37.8 41.3 37.6 41.3 37.6 C41.3 37.6 41.3 37.7 41.3 37.8 C41.3 37.7 41.3 37.6 41.3 37.5 C41.2 37.4 41.2 37.3 41.2 37.2 C41.1 36.9 41.2 37.2 41.2 37.3 C41.2 37.2 41.1 37 41 37 C41 36.9 41 36.8 40.9 36.8 C41 36.9 41.1 36.9 40.9 36.8 C40.8 36.7 40.7 36.5 40.5 36.4 C40.8 36.7 40.4 36.3 40.3 36.3 C40.6 36.5 40.2 36.3 40.2 36.3 C40.1 36.2 39.9 36.2 39.8 36.2 C39.5 36.1 40 36.2 39.8 36.2 C39.7 36.2 39.5 36.2 39.4 36.2 C39.3 36.2 38.9 36.2 39.3 36.2 C39.2 36.2 39.1 36.2 39 36.2 C38.9 36.3 38.8 36.3 38.7 36.3 C38.3 36.4 38.9 36.2 38.6 36.4 C38.4 36.5 38.3 36.6 38.1 36.7 C38.4 36.5 38.1 36.7 38.1 36.7 C38 36.8 37.8 36.9 37.8 37 C37.8 37 38 36.7 37.8 37 C37.7 37.1 37.7 37.1 37.6 37.2 C37.6 37.3 37.5 37.4 37.5 37.5 C37.3 37.8 37.5 37.5 37.5 37.4 C37.4 37.6 37.4 37.9 37.3 38.1 C37.3 38.1 37.3 38.2 37.3 38.3 C37.2 38.4 37.3 38.4 37.3 38.2 C37.3 38.3 37.3 38.3 37.3 38.4 C37.3 38.6 37.3 38.8 37.3 39 C37.3 39.2 37.2 38.6 37.3 39 C37.3 39.1 37.3 39.2 37.3 39.3 C37.4 39.4 37.4 39.4 37.4 39.5 C37.4 39.6 37.5 39.9 37.4 39.5 C37.4 39.7 37.7 39.9 37.7 40.1 C37.8 40.3 37.5 39.9 37.7 40.1 C37.8 40.2 37.9 40.3 38 40.3 C38 40.4 38.3 40.7 38 40.4 C38 40.4 38.1 40.5 38.2 40.5 C38.3 40.6 38.5 40.8 38.7 40.8 C38.4 40.8 38.6 40.8 38.7 40.8 C38.8 40.8 38.9 40.9 39.1 40.9 C39.1 40.9 39.3 41 39.4 41 C39.3 41 39.1 40.9 39.3 41 C39.5 41 39.8 41 40 41 C40.1 41 40.1 40.9 40.2 41 C40.5 41 39.9 41 40.2 40.9 C40.4 40.9 40.7 40.8 40.9 40.8 C41.1 40.7 40.6 40.9 40.9 40.8 C41 40.7 41.1 40.7 41.2 40.6 C41.3 40.6 41.3 40.5 41.4 40.5 C41.5 40.4 41.7 40.4 41.4 40.5 C41.6 40.4 41.8 40.2 41.9 40 C41.9 40 42 39.8 41.9 40.1 C41.9 39.9 42 39.8 42.1 39.7 C42.2 39.6 42.4 39.1 42.2 39.4 C42.4 39.3 42.4 39 42.5 38.8 C42.5 38.7 42.5 38.7 42.5 38.6 C42.5 38.5 42.7 38.2 42.5 38.5 C42.6 38.4 42.6 38.1 42.6 37.9 C42.6 37.8 42.5 37.6 42.5 37.5 C42.5 37.1 42.6 37.8 42.5 37.5 C42.5 37.3 42.4 37.1 42.4 36.9 C42.4 36.8 42.3 36.7 42.3 36.6 C42.4 37 42.3 36.6 42.2 36.6 C42.1 36.3 42 36.1 41.9 36 C42.1 36.2 41.9 36 41.8 35.9 C41.8 35.8 41.7 35.7 41.6 35.6 C41.5 35.5 41.4 35.4 41.3 35.4 C41.5 35.6 41.2 35.4 41.2 35.3 C41.1 35.2 41 35.2 40.9 35.1 C40.8 35.1 40.3 34.9 40.7 35 C40.4 34.9 40.2 34.9 40 34.8 C39.9 34.8 39.5 34.8 39.9 34.8 C39.8 34.8 39.6 34.8 39.5 34.8 C39.4 34.8 39.3 34.8 39.2 34.8 C39.6 34.8 39.1 34.8 39 34.8 C38.9 34.8 38.8 34.9 38.8 34.9 C38.7 34.9 38.6 34.9 38.5 35 C38.7 34.9 38.7 34.9 38.6 35 C38.3 35.1 38.1 35.2 37.9 35.3 C38.2 35.1 37.9 35.3 37.9 35.4 C37.8 35.5 37.7 35.6 37.6 35.7 C37.5 35.7 37.4 36 37.6 35.7 C37.5 35.8 37.4 36 37.3 36.1 C37.1 36.4 37.4 35.9 37.3 36.1 C37.2 36.2 37.2 36.4 37.2 36.5 C37.2 36.5 37.2 36.6 37.1 36.6 C37.1 36.8 37.1 36.8 37.1 36.6 C37.2 36.6 37.1 36.9 37.1 36.9 C37.1 37 37.1 37.1 37.1 37.2 C37.2 37.4 37.2 37.4 37.1 37.2 C37.1 37.2 37.2 37.3 37.2 37.4 C37.2 37.5 37.2 37.5 37.2 37.6 C37.3 37.7 37.3 37.8 37.3 37.8 C37.2 37.6 37.2 37.6 37.3 37.8 C37.4 37.9 37.4 38 37.5 38.1 C37.5 38.2 37.7 38.4 37.5 38.1 C37.6 38.2 37.6 38.3 37.7 38.4 C37.8 38.4 37.8 38.5 37.9 38.5 C37.7 38.4 37.7 38.4 37.9 38.5 C38.5 38.9 38.9 39.8 38.4 40.6 C38 41.2 37 41.6 36.3 41.1" />
<path fill="#93999D" d="M22.2 35.8 C22.5 34.7 23.3 33.7 24.3 33.3 C25.5 32.7 26.7 32.7 27.9 33.2 C29.9 34.2 30.7 37.1 29.4 39 C29.1 39.5 28.7 39.9 28.2 40.2 C27.6 40.5 27 40.6 26.4 40.7 C25.3 40.8 24.1 40.4 23.3 39.6 C22.3 38.8 21.9 37.3 22.2 36 C22.4 35.3 22.8 34.7 23.4 34.3 C23.9 33.9 24.5 33.7 25.2 33.6 C26 33.5 26.8 33.8 27.4 34.3 C27.9 34.8 28.2 35.5 28.3 36.3 C28.3 36.9 28.1 37.6 27.8 38 C27.2 38.8 26.5 39.2 25.6 39.2 C24.9 39.3 24.1 38.5 24.1 37.8 C24.2 36.9 24.8 36.3 25.6 36.2 C25.7 36.2 25.7 36.2 25.7 36.2 C25.6 36.3 25.5 36.3 25.3 36.3 C25.4 36.3 25.5 36.3 25.6 36.2 C25.5 36.3 25.4 36.3 25.2 36.4 C25.3 36.3 25.4 36.3 25.5 36.2 C25.4 36.3 25.3 36.4 25.2 36.5 C25.3 36.4 25.3 36.3 25.4 36.2 C25.3 36.3 25.3 36.4 25.2 36.5 C25.3 36.4 25.3 36.3 25.4 36.2 C25.3 36.3 25.3 36.4 25.2 36.6 C25.3 36.4 25.3 36.3 25.3 36.2 C25.3 36.3 25.3 36.4 25.3 36.6 C25.3 36.4 25.3 36.3 25.3 36.2 C25.3 36.3 25.3 36.5 25.3 36.6 C25.3 36.5 25.3 36.4 25.2 36.3 C25.3 36.4 25.3 36.5 25.4 36.6 C25.3 36.5 25.3 36.5 25.2 36.4 C25.3 36.5 25.4 36.6 25.5 36.7 C25.4 36.6 25.3 36.5 25.2 36.5 C25.3 36.5 25.4 36.6 25.5 36.7 C25.5 36.6 25.4 36.6 25.3 36.5 C25.4 36.6 25.5 36.6 25.6 36.7 C25.5 36.6 25.4 36.6 25.2 36.6 C25.3 36.6 25.5 36.6 25.6 36.6 C25.4 36.6 25.3 36.6 25.1 36.6 C25.3 36.6 25.4 36.6 25.5 36.6 C25.4 36.6 25.2 36.6 25 36.7 C25.2 36.6 25.3 36.6 25.4 36.5 C25.3 36.6 25.1 36.7 25 36.8 C25.1 36.7 25.2 36.6 25.3 36.5 C25.2 36.6 25.1 36.7 25.1 36.8 C25.1 36.7 25.2 36.6 25.3 36.5 C25.2 36.6 25.1 36.7 25.1 36.9 C25.1 36.8 25.2 36.6 25.2 36.5 C25.2 36.7 25.1 36.9 25.1 37.1 C25.1 36.9 25.1 36.8 25.1 36.7 C25.1 36.8 25.1 37 25.1 37.2 C25.1 37.1 25.1 36.9 25.1 36.8 C25.1 37 25.2 37.2 25.3 37.4 C25.2 37.3 25.2 37.2 25.1 37.1 C25.2 37.2 25.3 37.4 25.4 37.5 C25.3 37.4 25.2 37.3 25.1 37.2 C25.3 37.4 25.4 37.5 25.5 37.6 C25.4 37.6 25.3 37.5 25.2 37.4 C25.4 37.5 25.6 37.6 25.8 37.7 C25.7 37.7 25.5 37.6 25.4 37.6 C25.6 37.7 25.9 37.7 26.1 37.8 C26 37.7 25.8 37.7 25.7 37.7 C26 37.7 26.2 37.7 26.5 37.7 C26.3 37.7 26.2 37.7 26.1 37.8 C26.3 37.7 26.5 37.7 26.8 37.6 C26.6 37.6 26.5 37.7 26.4 37.7 C26.6 37.6 26.8 37.5 26.9 37.4 C26.8 37.5 26.7 37.6 26.6 37.6 C26.8 37.5 26.9 37.4 27 37.3 C26.9 37.4 26.8 37.5 26.8 37.6 C26.9 37.4 27 37.2 27.1 37.1 C27 37.2 26.9 37.3 26.9 37.4 C27 37.2 27 37 27.1 36.8 C27 36.9 27 37.1 27 37.2 C27 37 27 36.7 27 36.5 C27 36.6 27 36.7 27.1 36.9 C27 36.6 27 36.4 26.9 36.1 C26.9 36.3 27 36.4 27 36.5 C26.9 36.3 26.8 36.1 26.7 36 C26.8 36.1 26.8 36.2 26.9 36.3 C26.8 36.1 26.7 36 26.5 35.8 C26.6 35.9 26.7 36 26.8 36.1 C26.7 36 26.5 35.9 26.3 35.8 C26.4 35.8 26.5 35.9 26.7 35.9 C26.5 35.9 26.3 35.8 26.1 35.8 C26.3 35.8 26.4 35.8 26.5 35.8 C26.3 35.8 26.1 35.8 25.8 35.8 C26 35.8 26.1 35.8 26.2 35.8 C26 35.8 25.8 35.9 25.6 36 C25.7 35.9 25.8 35.9 25.9 35.8 C25.7 35.9 25.5 36 25.3 36.2 C25.4 36.1 25.5 36 25.6 35.9 C25.4 36.1 25.3 36.2 25.1 36.4 C25.2 36.3 25.3 36.2 25.4 36.1 C25.2 36.3 25.2 36.4 25.1 36.6 C25.1 36.5 25.2 36.4 25.2 36.3 C25.2 36.4 25.1 36.5 25.1 36.6 C24.9 37.3 24 37.9 23.3 37.6 C22.5 37.4 22 36.6 22.2 35.8" />
<path fill="#93999D" d="M14.1 41.9 C14 41.7 13.9 41.4 13.8 41.1 C13.7 40.9 13.6 40.6 13.6 40.3 C13.6 40 13.6 39.7 13.7 39.5 C13.7 39.2 13.8 38.9 13.9 38.7 C14.1 38.5 14.2 38.2 14.4 38 C14.6 37.8 14.8 37.7 15 37.5 C15.2 37.4 15.5 37.3 15.7 37.2 C15.8 37.2 15.9 37.2 15.9 37.2 C16.1 37.1 16.3 37.1 16.5 37.1 C16.6 37.1 16.6 37.1 16.7 37.1 C16.9 37.1 17.1 37.1 17.3 37.2 C17.5 37.2 17.7 37.3 17.8 37.4 C17.9 37.4 17.9 37.5 18 37.5 C18.1 37.6 18.3 37.7 18.4 37.9 C18.6 38 18.7 38.1 18.8 38.3 C18.9 38.5 19 38.7 19.1 39 C19.2 39.2 19.2 39.5 19.3 39.7 C19.3 39.8 19.3 39.8 19.3 39.9 C19.2 40.1 19.2 40.3 19.2 40.5 C19.1 40.7 19 40.8 19 41 C18.9 41.1 18.9 41.1 18.9 41.2 C18.7 41.5 18.5 41.6 18.2 41.9 C17.9 42.1 17.4 42.4 16.9 42.4 C16.5 42.5 16 42.6 15.6 42.5 C15.2 42.5 14.8 42.4 14.5 42.1 C14.2 41.8 14 41.4 14.1 41 C14.1 40.7 14.2 40.3 14.5 40 C14.8 39.7 15.2 39.5 15.6 39.5 C15.8 39.6 16.1 39.5 16.4 39.5 C16.3 39.5 16.1 39.5 16 39.6 C16.2 39.5 16.4 39.5 16.6 39.4 C16.5 39.5 16.4 39.5 16.2 39.6 C16.4 39.5 16.5 39.5 16.6 39.4 C16.5 39.5 16.4 39.5 16.3 39.6 C16.4 39.5 16.4 39.5 16.5 39.4 C16.4 39.5 16.3 39.6 16.3 39.7 C16.3 39.6 16.3 39.6 16.4 39.5 C16.3 39.6 16.3 39.7 16.2 39.8 C16.3 39.8 16.3 39.7 16.3 39.6 C16.3 39.7 16.3 39.8 16.2 40 C16.3 39.9 16.3 39.8 16.2 39.7 C16.3 39.8 16.3 39.9 16.3 40.1 C16.3 39.9 16.3 39.8 16.2 39.7 C16.3 39.9 16.3 40 16.4 40.1 C16.3 40 16.3 39.9 16.2 39.8 C16.3 39.9 16.3 40 16.4 40.1 C16.4 40 16.3 40 16.2 39.9 C16.3 40 16.4 40.1 16.5 40.1 C16.5 40.1 16.4 40 16.3 40 C16.4 40 16.5 40.1 16.6 40.1 C16.5 40.1 16.4 40.1 16.3 40.1 C16.5 40.1 16.6 40.1 16.7 40.1 C16.6 40.1 16.5 40.1 16.4 40.1 C16.5 40.1 16.6 40.1 16.8 40.1 C16.6 40.1 16.5 40.1 16.4 40.2 C16.5 40.1 16.7 40.1 16.8 40 C16.7 40.1 16.5 40.1 16.4 40.2 C16.5 40.1 16.6 40 16.7 40 C16.6 40 16.5 40.1 16.5 40.2 C16.6 40.1 16.6 40 16.7 39.9 C16.6 40 16.6 40.1 16.5 40.2 C16.6 40.1 16.6 40 16.7 39.9 C16.6 40 16.6 40.2 16.6 40.3 C16.6 40.2 16.6 40 16.6 39.9 C16.6 40 16.6 40.2 16.6 40.3 C16.6 40.2 16.6 40.1 16.6 39.9 C16.6 40.1 16.6 40.3 16.7 40.4 C16.6 40.3 16.6 40.2 16.5 40.1 C16.6 40.2 16.6 40.3 16.7 40.4 C16.8 40.6 16.9 40.7 16.9 40.9 C16.9 41.1 16.9 41.3 16.9 41.5 C16.8 41.9 16.5 42.3 16.2 42.4 C15.8 42.6 15.4 42.7 15 42.6 C14.9 42.5 14.8 42.5 14.7 42.4 C14.4 42.3 14.3 42.1 14.1 41.9" />
<g clip-path="url(#clip-24)">
<path fill="#93999D" d="M-43.8 136.5 C-42.1 142.8 -37.5 148.3 -31.4 150.7 C-24.6 153.4 -16.8 152.3 -11 148 C-5.6 143.9 -2.2 137.5 0.8 131.5 C3.9 125.5 6.9 119.3 11.6 114.3 C16.4 109.2 22.9 106.3 30 106.7 C37.5 107 44.7 110.4 51.1 114.2 C57.5 118.1 63.7 122.5 70.7 125 C77.4 127.3 84.4 127.3 90.8 124.2 C96.9 121.3 101.9 116.3 104.8 110.2 C108.1 103.5 108.9 95.7 107.7 88.4 C107.4 86.6 107 84.8 106.5 83.1 C106 81.2 108.9 80.4 109.4 82.3 C113.5 96.7 110.5 113.5 98.2 123.1 C92.7 127.4 85.8 130 78.8 129.7 C71.1 129.2 64 125.6 57.5 121.7 C50.7 117.6 44.1 113 36.4 110.8 C32.7 109.7 28.7 109.2 24.8 110 C21.4 110.7 18.2 112.3 15.6 114.7 C4.8 124.2 3 140.2 -8.2 149.5 C-14 154.3 -21.7 156.2 -29.1 154.6 C-35.8 153.1 -41.7 148.3 -44.8 142.2 C-45.6 140.6 -46.2 139 -46.7 137.3 C-47.2 135.4 -44.3 134.6 -43.8 136.5" />
</g>
<g clip-path="url(#clip-25)">
<path fill="#F889C5" d="M309 185 C294.9 193.5 284.8 208.3 282.3 224.6 C280.4 236.3 282.5 249 289.7 258.5 C296.9 268 309.4 273.6 321 271 C334.7 267.8 343.5 255 350.9 243.1 C357.2 233.2 363.4 223.3 367.9 212.5 C370.7 205.8 372.9 198.4 371.4 191.2 C368.4 177.3 356.7 178.6 345.8 177.6 C332.9 176.4 320.3 178.2 309 185" />
</g>
<g clip-path="url(#clip-26)">
<path fill="#7AE3E1" d="M306.3 -6.1 C322.8 -12.9 341.9 -14.1 358.6 -7.7 C375.3 -1.4 389.1 12.8 393.6 30 C398.1 47.3 392.3 67.2 378.3 78.3 C371.2 83.9 360.6 86.9 353.3 81.6 C348.2 77.9 346.2 71.2 346.4 65 C346.5 58.7 348.4 52.6 349.7 46.5 C351.8 36.2 351 23.5 342.1 18 C334.3 13.2 323.9 16.4 316.3 21.5 C306.7 27.9 279.2 51.4 271.3 29.7 C265.5 13.9 295.2 -1.5 306.3 -6.1" />
</g>
<g clip-path="url(#clip-27)">
<path fill="none" stroke-width="13" stroke-linecap="butt" stroke-linejoin="miter" stroke="#FF7540" stroke-miterlimit="10" d="M0 -0 C5.9 16.8 6.4 36.3 -2.6 51.6 C-11.5 67 -31.1 76.6 -47.9 70.7 C-56.4 67.8 -63.2 61.6 -70.8 56.7 C-78.3 51.8 -87.7 48.2 -96.1 51.4 C-102.9 53.9 -107.4 60.3 -110.6 66.7 C-113.8 73.2 -116.1 80.2 -120.4 86 C-128.6 97.3 -144.3 102.4 -157.6 98.3 C-170.9 94.2 -180.9 81 -181.3 67.1 C-181.5 61.3 -180 54.2 -176 50 C-172.1 45.7 -165.4 43.4 -160.4 46.3 C-155.1 49.3 -153.6 56.7 -148.3 59.7 C-142.2 63.1 -134.4 58.9 -130.5 53.1 C-126.6 47.3 -125.2 40.3 -122 34.1 C-112.9 16.9 -88.2 10.2 -71.7 20.6 C-66.6 23.8 -62.4 28.2 -57.4 31.5 C-52.4 34.8 -46.1 37 -40.4 34.9 C-35.1 32.9 -31.7 27.5 -29.9 22.1 C-28.1 16.6 -27.6 10.9 -25.6 5.5 C-23.7 0.1 -20 -5.2 -14.5 -6.7 C-9 -8.3 -1.9 -5.4 0 -0Z M0 -0" transform="matrix(1, 0, 0, 1, 422.3, 74.1)" />
</g>
<g clip-path="url(#clip-28)">
<path fill="#93999D" d="M362.8 86.6 C357 86.1 351.8 83.8 348.3 79 C344.2 73.4 343.6 66.6 344.9 60 C346.3 52.5 350 45.5 350.6 37.9 C351.1 31.7 349.3 24.9 343.4 21.9 C338.1 19.2 331.5 20.2 326.3 22.4 C319.9 25 314.6 29.9 309.2 34 C304 37.8 298.5 41.2 292 42.1 C286.6 42.9 280.8 42 276.4 38.5 C271.3 34.4 270.3 27.4 271.9 21.4 C273.7 14.9 277.8 9.1 282.4 4.3 C292.1 -5.7 305.4 -11.5 319.2 -13 C334 -14.7 349.3 -11.5 362.5 -4.7 C374.8 1.6 385.3 11.6 390.9 24.3 C396.2 36 397.4 49.6 392.6 61.7 C388.6 71.7 381.2 82 370.6 85.6 C368.1 86.4 365.5 86.7 362.8 86.6 C360.9 86.5 360.9 83.5 362.8 83.6 C373.7 84.1 382.2 75.3 387.1 66.5 C389.5 62 391.4 57.2 392.2 52.2 C393.2 45.7 392.6 39 390.9 32.8 C383.3 5.8 355 -9.9 328.2 -10.4 C314.5 -10.7 300.8 -6.9 289.9 1.6 C284.9 5.5 280.4 10.4 277.4 15.9 C274.4 21.3 272.5 28.6 276.4 34.1 C279.3 38.3 284.7 39.6 289.5 39.4 C295.6 39.1 300.9 36.2 305.8 32.8 C311.3 28.8 316.4 24.1 322.4 20.9 C327.3 18.3 333.2 16.8 338.8 17.4 C344.6 18.2 349.6 21.5 352 27 C354.7 33.2 353.8 40.1 352 46.4 C350 53.2 347 59.9 347.3 67.2 C347.4 72.6 350.1 78.2 354.8 81.1 C357.3 82.6 360 83.3 362.8 83.6 C364.8 83.8 364.8 86.8 362.8 86.6" />
</g>
<g clip-path="url(#clip-29)">
<path fill="#93999D" d="M256.2 136.5 C257.9 142.8 262.5 148.3 268.6 150.7 C275.4 153.4 283.2 152.3 289 148 C294.4 143.9 297.8 137.5 300.8 131.5 C303.9 125.5 306.9 119.3 311.6 114.3 C316.4 109.2 322.9 106.3 330 106.7 C337.5 107 344.7 110.4 351.1 114.2 C357.5 118.1 363.7 122.5 370.7 125 C377.4 127.3 384.4 127.3 390.8 124.2 C396.9 121.3 401.9 116.3 404.8 110.2 C408.1 103.5 408.9 95.7 407.7 88.4 C407.4 86.6 407 84.8 406.5 83.1 C406 81.2 408.9 80.4 409.4 82.3 C413.5 96.7 410.5 113.5 398.2 123.1 C392.7 127.4 385.8 130 378.8 129.7 C371.1 129.2 364 125.6 357.5 121.7 C350.7 117.6 344.1 113 336.4 110.8 C332.7 109.7 328.7 109.2 324.8 110 C321.4 110.7 318.2 112.3 315.6 114.7 C304.8 124.2 303 140.2 291.8 149.5 C286 154.3 278.3 156.2 270.9 154.6 C264.2 153.1 258.3 148.3 255.2 142.2 C254.4 140.6 253.8 139 253.3 137.3 C252.8 135.4 255.7 134.6 256.2 136.5" />
</g>
<path fill="#868AE3" d="M250.4 182.9 C234.9 178.5 217.1 183.7 206.4 195.8 C195.7 207.8 192.6 226 198.7 240.9 C202 237.5 205 233.8 208.3 230.4 C212 234.2 215.8 238.1 219.5 241.9 C222.7 237.7 225.9 233.4 229.1 229.1 C234.1 233.4 239 237.7 244 242L254.4 228.7 C260.4 233.4 261.7 236 267.3 241.9 C270.2 231.7 269.7 225.9 270.4 218.3 C271.2 210.4 270.9 202.2 267.4 195 C264 187.9 258 185 250.4 182.9" />
<path fill="#93999D" d="M200.8 247.4 C202.9 244.3 205 241.3 207.1 238.3 C207.6 237.6 208.8 237.2 209.5 238 C213 242.5 216.5 247 220 251.5 C219.2 251.6 218.4 251.7 217.7 251.8 C221.3 246.9 225 242 228.7 237.1 C229.2 236.3 230.3 236.1 231 236.8 C236.2 242 241.4 247.1 246.6 252.3 C245.8 252.4 245.1 252.5 244.3 252.6 C247.8 247.3 251.3 242.1 254.8 236.8 C255.3 236 256.5 235.7 257.2 236.5 C261.4 241.2 265.6 245.9 269.8 250.5 C271.1 252 269 254.1 267.7 252.7 C263.5 248 259.3 243.3 255.1 238.6 C255.8 238.5 256.6 238.4 257.4 238.3 C253.9 243.6 250.4 248.9 246.9 254.1 C246.3 254.9 245.2 255.1 244.5 254.4 C239.3 249.3 234.1 244.1 228.9 238.9 C229.7 238.8 230.5 238.7 231.3 238.6 C227.6 243.5 223.9 248.4 220.3 253.3 C219.8 254 218.6 254.5 217.9 253.6 C214.4 249.1 210.9 244.6 207.4 240.1 C208.1 240 208.9 239.9 209.7 239.8 C207.6 242.8 205.5 245.9 203.4 248.9 C202.3 250.4 199.7 248.9 200.8 247.4" />
<path fill="#FF7540" d="M246 84.6 C239.2 91 230.1 94.5 220.8 95.3 C205.3 96.8 189 90.4 179.6 78 C170.1 65.7 168.3 47.5 176.3 34.2 C178.4 30.6 181.6 27.2 185.7 26.9 C190.2 26.5 194.2 30.2 195.8 34.4 C197.4 38.6 197.1 43.3 196.8 47.8 C198.1 42.5 199.5 37.2 202.4 32.6 C205.2 28 209.9 24.2 215.3 23.9 C222.2 23.5 228.3 28.6 231.2 34.8 C234.2 41 234.5 48 234.8 54.8 C233.5 49.8 235.9 44 240.3 41.4 C244.8 38.8 251 39.7 254.6 43.4 C259.2 48.4 257.3 56.5 256.4 62.6 C255.2 71.1 252.4 78.6 246 84.6" />
<path fill="#93999D" d="M242 46.7 C245.9 46.7 245.9 52.7 242 52.7 C238.2 52.7 238.2 46.7 242 46.7" />
<path fill="#93999D" d="M252.6 51.1 C256.4 51.1 256.4 57.1 252.6 57.1 C248.7 57.1 248.7 51.1 252.6 51.1" />
<path fill="#93999D" d="M243.9 59.5 C247.8 59.5 247.8 65.5 243.9 65.5 C240.1 65.5 240 59.5 243.9 59.5" />
<path fill="#93999D" d="M248.1 70.1 C252 70.1 252 76.1 248.1 76.1 C244.2 76.1 244.2 70.1 248.1 70.1" />
<path fill="#93999D" d="M233.2 70.2 C237.1 70.2 237.1 76.2 233.2 76.2 C229.3 76.2 229.3 70.2 233.2 70.2" />
<path fill="#93999D" d="M238.6 80.1 C242.5 80.1 242.5 86.1 238.6 86.1 C234.8 86.1 234.8 80.1 238.6 80.1" />
<path fill="#93999D" d="M225.8 85.8 C229.7 85.8 229.7 91.8 225.8 91.8 C221.9 91.8 221.9 85.8 225.8 85.8" />
<path fill="#93999D" d="M208.8 85.1 C212.6 85.1 212.7 91.1 208.8 91.1 C204.9 91.1 204.9 85.1 208.8 85.1" />
<path fill="#93999D" d="M194.8 81.6 C198.7 81.6 198.7 87.6 194.8 87.6 C191 87.6 190.9 81.6 194.8 81.6" />
<path fill="#93999D" d="M186.6 74.9 C190.4 74.9 190.4 80.9 186.6 80.9 C182.7 80.9 182.7 74.9 186.6 74.9" />
<path fill="#93999D" d="M177.5 67 C177.5 66.8 177.5 66.7 177.5 66.5 C177.5 66.1 177.6 65.7 177.8 65.3 C177.9 65 178.1 64.6 178.4 64.4 C178.6 64.1 179 63.9 179.3 63.8 C179.7 63.6 180.1 63.5 180.5 63.5 C180.8 63.5 181 63.6 181.3 63.6 C181.8 63.7 182.2 64 182.6 64.4 C182.8 64.6 182.9 64.8 183.1 65 C183.4 65.4 183.5 66 183.5 66.5 C183.5 66.7 183.5 66.8 183.5 67 C183.5 67.4 183.4 67.8 183.2 68.1 C183.1 68.5 182.9 68.8 182.6 69.1 C182.3 69.4 182 69.6 181.6 69.7 C181.3 69.9 180.9 70 180.5 70 C180.2 69.9 179.9 69.9 179.7 69.9 C179.2 69.7 178.7 69.5 178.3 69.1 C178.2 68.9 178 68.7 177.9 68.5 C177.6 68 177.5 67.5 177.5 67" />
<path fill="#93999D" d="M178.9 49.9 C182.7 49.9 182.8 55.9 178.9 55.9 C175 55.9 175 49.9 178.9 49.9" />
<path fill="#93999D" d="M181 38.3 C184.9 38.3 184.9 44.3 181 44.3 C177.1 44.3 177.1 38.3 181 38.3" />
<path fill="#93999D" d="M189.3 32.3 C193.1 32.3 193.2 38.3 189.3 38.3 C185.4 38.3 185.4 32.3 189.3 32.3" />
<path fill="#93999D" d="M190.4 45.3 C194.3 45.3 194.3 51.3 190.4 51.3 C186.6 51.3 186.6 45.3 190.4 45.3" />
<path fill="#93999D" d="M190.5 56.9 C194.4 56.9 194.4 62.9 190.5 62.9 C186.6 62.9 186.6 56.9 190.5 56.9" />
<path fill="#93999D" d="M201.1 52.4 C204.9 52.4 204.9 58.4 201.1 58.4 C197.2 58.4 197.2 52.4 201.1 52.4" />
<path fill="#93999D" d="M205.3 42.1 C209.1 42.1 209.2 48.1 205.3 48.1 C201.4 48.1 201.4 42.1 205.3 42.1" />
<path fill="#93999D" d="M212.3 29.6 C216.1 29.6 216.1 35.6 212.3 35.6 C208.4 35.6 208.4 29.6 212.3 29.6" />
<path fill="#93999D" d="M221.2 29.4 C225 29.4 225 35.4 221.2 35.4 C217.3 35.4 217.3 29.4 221.2 29.4" />
<path fill="#93999D" d="M227 35.7 C230.9 35.7 230.9 41.7 227 41.7 C223.2 41.7 223.2 35.7 227 35.7" />
<path fill="#93999D" d="M228.4 49 C232.3 49 232.3 55 228.4 55 C224.6 55 224.6 49 228.4 49" />
<path fill="#93999D" d="M232 57.6 C235.9 57.6 235.9 63.6 232 63.6 C228.1 63.6 228.1 57.6 232 57.6" />
<path fill="#93999D" d="M223.7 64.3 C227.6 64.3 227.6 70.3 223.7 70.3 C219.8 70.3 219.8 64.3 223.7 64.3" />
<path fill="#93999D" d="M216.7 40.9 C220.5 40.9 220.5 46.9 216.7 46.9 C212.8 46.9 212.8 40.9 216.7 40.9" />
<path fill="#93999D" d="M218.9 52 C222.7 52 222.8 58 218.9 58 C215 58 215 52 218.9 52" />
<path fill="#93999D" d="M210.5 59 C214.4 59 214.4 65 210.5 65 C206.7 65 206.7 59 210.5 59" />
<path fill="#93999D" d="M198.3 63.3 C202.1 63.3 202.2 69.3 198.3 69.3 C194.4 69.3 194.4 63.3 198.3 63.3" />
<path fill="#93999D" d="M199.9 73 C203.7 73 203.7 79 199.9 79 C196 79 196 73 199.9 73" />
<path fill="#93999D" d="M210.9 69.1 C214.8 69.1 214.8 75.1 210.9 75.1 C207.1 75.1 207.1 69.1 210.9 69.1" />
<path fill="#93999D" d="M218.3 78.2 C222.2 78.2 222.2 84.2 218.3 84.2 C214.5 84.2 214.4 78.2 218.3 78.2" />
<path fill="#93999D" d="M233 215.8 C224 216.8 214.7 213.7 207.8 207.8 C200.7 201.7 195.5 191.2 199.3 181.9 C201.2 177.3 205.1 173.7 210.1 172.7 C215.3 171.6 220.4 172.8 225.2 174.7 C233.7 177.9 243.9 181.8 246.3 191.6 C247.6 197.1 246.2 202.4 243.7 207.3 C241.5 211.7 238.1 215.2 233 215.8 C231.4 215.9 230 214.3 230 212.8 C230 211 231.4 209.9 233 209.8 C232.6 209.8 233.5 209.6 233.7 209.6 C233.7 209.6 234.3 209.4 234 209.5 C233.8 209.6 234.3 209.4 234.2 209.4 C235.1 208.9 235.3 208.8 235.9 208.2 C236.9 207.2 237.6 206 238.4 204.5 C238.7 203.9 239.1 203.2 239.4 202.5 C239.4 202.4 239.6 202 239.4 202.4 C239.5 202.2 239.5 202.1 239.6 202 C239.8 201.4 240 200.9 240.2 200.4 C240.8 198.5 241 196.5 240.8 194.5 C239.9 187 232.1 183.8 226 181.4 C222.1 179.8 218 178.1 213.7 178.2 C210.1 178.3 207.1 179.9 205.4 182.9 C203.7 186 203.7 189.6 204.8 193.1 C205.9 196.7 208.1 199.9 210.8 202.4 C216.7 208.1 225 210.7 233 209.8 C234.6 209.6 236 211.3 236 212.8 C236 214.5 234.6 215.6 233 215.8" />
<path fill="#93999D" d="M96.1 19.6 C102.4 18.1 109.4 20 114 24.7 C118.6 29.4 120.2 36.8 118.2 43 C117.3 45.9 115.5 49.4 112.1 49.6 C109.1 49.8 106.6 47.2 106 44.5 C104.6 37.4 113.2 33.3 118.8 32.6 C125.4 31.7 132.2 33.8 136.8 38.6 C141.3 43.3 143.4 49.9 142.5 56.3 C142.1 59.2 140.9 62.5 138.1 63.8 C135.5 65.1 132.6 63.8 131.5 61.3 C128.9 55.7 133.4 49.7 138.3 47.4 C144.2 44.5 151 45.6 156.2 49.5 C161.9 53.9 164.8 60.7 165.6 67.7 C165.8 69.6 165.9 71.5 165.8 73.4 C165.7 75.3 162.7 75.3 162.8 73.4 C163 67.5 162 61.3 158.6 56.4 C155.8 52.2 151.1 48.9 146 48.7 C141.3 48.5 136.4 50.9 134.3 55.3 C133.6 56.8 133.4 59.1 134.5 60.6 C136 62.6 138.1 60.2 138.8 58.7 C140.8 54.3 139.6 48.5 137.4 44.4 C134.9 39.9 130.5 36.8 125.4 35.7 C120.6 34.7 114.6 35.6 110.9 39.2 C109.2 40.9 108.1 43.4 109.8 45.5 C111.6 47.7 113.7 46 114.6 44 C117.2 38.8 116.3 31.9 112.5 27.5 C108.7 23.1 102.5 21.1 96.9 22.5 C95 23 94.2 20.1 96.1 19.6" />
<path fill="#93999D" d="M188.8 162.7 C189 161.3 189.2 159.8 189.3 158.4 C189.4 158 189.5 157.6 189.8 157.3 C190 157.1 190.4 156.9 190.8 156.9 C191.2 156.9 191.6 157 191.9 157.3 C192.1 157.6 192.4 158 192.3 158.4 C192.2 159.8 192 161.3 191.8 162.7 C191.8 163.1 191.7 163.4 191.4 163.8 C191.1 164 190.7 164.2 190.3 164.2 C190 164.2 189.6 164 189.3 163.8 C189 163.5 188.8 163.1 188.8 162.7" />
<path fill="#93999D" d="M192.7 165.4L192.7 161.1 C192.7 160.3 193.4 159.6 194.2 159.6 C195 159.6 195.7 160.2 195.7 161.1L195.7 165.4 C195.7 166.2 195 166.9 194.2 166.9 C193.4 166.9 192.7 166.2 192.7 165.4" />
<path fill="#93999D" d="M197.4 121.1 C196.9 118.5 196.4 115.8 195.9 113.1 C195.7 112.3 196.1 111.4 196.9 111.2 C197.7 111.1 198.6 111.4 198.8 112.3 C199.3 115 199.8 117.7 200.3 120.4 C200.5 121.1 200.1 122 199.3 122.2 C198.5 122.4 197.6 122 197.4 121.1" />
<path fill="#93999D" d="M192.7 121.3 C192.5 119.6 192.3 118 192.2 116.4 C192.1 116.1 192.4 115.6 192.6 115.4 C192.9 115.1 193.3 114.9 193.7 114.9 C194 114.9 194.4 115.1 194.7 115.4 C195 115.7 195.1 116 195.2 116.4 C195.3 118 195.5 119.6 195.7 121.3 C195.7 121.6 195.5 122.1 195.3 122.3 C195 122.6 194.6 122.8 194.2 122.8 C193.8 122.7 193.4 122.6 193.1 122.3 C192.9 122 192.7 121.7 192.7 121.3" />
<path fill="#93999D" d="M274.3 265.4 C275.5 264.5 276.8 263.6 278 262.7 C278.3 262.5 278.8 262.4 279.2 262.5 C279.5 262.6 279.9 262.9 280.1 263.2 C280.2 263.6 280.3 264 280.2 264.4 C280.2 264.5 280.1 264.6 280.1 264.7 C279.9 264.9 279.7 265.1 279.5 265.3 C278.3 266.2 277 267.1 275.8 268 C275.5 268.2 275 268.2 274.6 268.2 C274.3 268.1 273.9 267.8 273.7 267.5 C273.6 267.1 273.5 266.7 273.6 266.3 C273.6 266.2 273.7 266.1 273.7 266 C273.9 265.7 274 265.5 274.3 265.4" />
<path fill="#93999D" d="M278.3 270.5 C279.9 268.9 281.5 267.2 283.1 265.6 C283.7 265.1 284.7 265 285.2 265.6 C285.8 266.2 285.8 267.1 285.2 267.7 C283.6 269.4 282 271 280.4 272.6 C279.9 273.2 278.9 273.2 278.3 272.6 C277.8 272 277.7 271.1 278.3 270.5" />
<path fill="#93999D" d="M39.9 250.1L39.9 194.3 C39.9 192.3 42.9 192.3 42.9 194.3L42.9 250.1 C42.9 252 39.9 252 39.9 250.1" />
<path fill="#93999D" d="M55.8 250.1L55.8 194.3 C55.8 192.3 58.8 192.3 58.8 194.3L58.8 250.1 C58.8 252 55.8 252 55.8 250.1" />
<path fill="#93999D" d="M71.5 250.1L71.5 194.3 C71.5 192.3 74.5 192.3 74.5 194.3L74.5 250.1 C74.5 252 71.5 252 71.5 250.1" />
<path fill="#93999D" d="M87.4 250.1L87.4 194.3 C87.4 192.3 90.4 192.3 90.4 194.3L90.4 250.1 C90.4 252 87.4 252 87.4 250.1" />
<path fill="#93999D" d="M93.1 247.4L37.2 247.4 C35.3 247.4 35.3 244.4 37.2 244.4L93.1 244.4 C95 244.4 95 247.4 93.1 247.4" />
<path fill="#93999D" d="M93.1 231.6L37.2 231.6 C35.3 231.6 35.3 228.6 37.2 228.6L93.1 228.6 C95 228.6 95 231.6 93.1 231.6" />
<path fill="#93999D" d="M93.1 215.8L37.2 215.8 C35.3 215.8 35.3 212.8 37.2 212.8L93.1 212.8 C95 212.8 95 215.8 93.1 215.8" />
<path fill="#93999D" d="M93.1 199.9L37.2 199.9 C35.3 199.9 35.3 196.9 37.2 196.9L93.1 196.9 C95 196.9 95 199.9 93.1 199.9" />
<path fill="#93999D" d="M109.3 210.4 C115.7 210.1 121.9 212.3 126.8 216.2 C129.2 218.2 131.3 220.6 132.8 223.3 C134.5 226.4 135.8 230.3 134.5 233.7 C133.4 236.5 130.7 238.8 127.6 238.4 C124.3 238.1 121.9 235.1 121.4 232 C120.4 225.7 124.2 219.1 129 215.3 C133.9 211.4 140.3 209.8 146.5 211.4 C152.5 212.9 157.9 217.2 160.5 222.9 C161.9 225.9 162.6 229.7 161 232.8 C159.7 235.5 156.4 237.4 153.4 236.3 C150.5 235.3 149.2 232.2 148.9 229.4 C148.6 226.4 149.5 223.4 150.9 220.8 C154 215.6 159.7 211.9 165.6 211 C173 209.8 180.4 212.2 186.8 215.6 C188.5 216.4 190.2 217.4 191.8 218.4 C193.5 219.5 192 222 190.3 221 C180.9 215.2 168.3 210 158.2 217.2 C154.4 220 151.5 224.4 151.9 229.2 C152.1 231.2 153.2 234.1 155.7 233.6 C158.6 233 159.3 229.7 158.8 227.3 C156.9 217 144.5 211.1 135.2 215.1 C130.7 217 126.8 220.8 125.2 225.5 C124.3 227.9 123.7 231 125.1 233.4 C126.3 235.6 128.9 236.2 130.7 234.3 C133 231.8 131.9 228 130.5 225.3 C129.2 222.8 127.3 220.6 125.1 218.7 C120.8 215 115.1 213.1 109.3 213.4 C107.4 213.5 107.4 210.5 109.3 210.4" />
</g>
</g></g>
</svg>
